<svg width="2441" height="875" viewBox="0 0 2441 875" fill="none" xmlns="http://www.w3.org/2000/svg">
<rect x="1.69004" y="2.49619" width="1163.63" height="870.222" fill="white" stroke="#0FA7E8" stroke-width="3.33418"/>
<rect x="1275.35" y="2.49619" width="1163.63" height="870.222" fill="white" stroke="#8053FF" stroke-width="3.33418"/>
<path d="M1433.39 99.1204C1420.36 99.1204 1407.47 107.096 1407.47 127.264C1407.47 148.43 1421.58 155.638 1433.39 155.638C1436.61 155.638 1439.37 155.025 1442.36 153.874C1445.74 158.322 1450.26 161.85 1457.09 163.767L1460.77 154.028C1455.71 153.184 1452.64 152.034 1449.73 149.81C1455.71 144.902 1459.31 137.617 1459.31 127.418C1459.31 106.022 1445.2 99.1204 1433.39 99.1204ZM1433.39 107.863C1443.51 107.863 1448.81 115.455 1448.81 127.494C1448.81 139.841 1442.36 146.819 1433.39 146.819C1423.27 146.819 1417.98 139.304 1417.98 127.188C1417.98 114.918 1424.11 107.863 1433.39 107.863ZM1503.28 113.768H1493.47V136.773C1493.47 142.985 1489.79 146.819 1484.65 146.819C1480.05 146.819 1478.06 144.595 1478.06 138.997V113.768H1468.24V141.221C1468.24 150.73 1473.84 155.255 1481.81 155.255C1486.41 155.255 1490.63 153.338 1493.62 149.503V154.181H1503.28V113.768ZM1530.64 112.617C1520.29 112.617 1513.69 116.758 1513.46 125.654H1523.12C1523.2 121.436 1525.35 119.826 1530.41 119.826C1535.93 119.826 1537.39 121.359 1537.39 126.037V128.031L1528.34 129.181C1516.45 130.638 1511.85 135.393 1511.85 142.832C1511.85 150.04 1516.84 155.255 1525.5 155.255C1529.8 155.255 1534.47 153.951 1537.54 149.963C1537.77 151.42 1538.15 152.877 1538.69 154.181H1548.58C1547.43 151.344 1547.2 148.506 1547.2 145.362V125.347C1547.2 117.372 1542.68 112.617 1530.64 112.617ZM1537.39 134.626V138.997C1537.39 144.059 1533.02 147.433 1528.03 147.433C1523.74 147.433 1521.9 145.209 1521.9 141.988C1521.9 138.154 1524.5 136.39 1530.87 135.546L1537.39 134.626ZM1579.74 112.617C1574.99 112.617 1570.7 114.534 1567.63 118.982V113.768H1557.97V154.181H1567.78V131.559C1567.78 125.27 1571.62 120.976 1576.75 120.976C1582.27 120.976 1583.65 124.734 1583.65 131.175V154.181H1593.47V128.031C1593.47 118.369 1588.56 112.617 1579.74 112.617ZM1615.45 103.568H1605.63V114.151H1600.11V121.359H1605.63V143.675C1605.63 150.654 1608.77 155.255 1617.9 155.255C1621.2 155.255 1624.04 154.718 1626.34 153.951V146.282C1624.57 146.743 1622.5 147.203 1620.28 147.203C1616.6 147.203 1615.45 145.592 1615.45 142.218V121.359H1625.49V114.151H1615.45V103.568ZM1638.59 95.6696C1635.44 95.6696 1632.6 98.2002 1632.6 101.421C1632.6 104.642 1635.44 107.249 1638.59 107.249C1641.81 107.249 1644.64 104.642 1644.64 101.421C1644.64 98.2002 1641.81 95.6696 1638.59 95.6696ZM1643.49 113.768H1633.68V154.181H1643.49V113.768ZM1666 103.568H1656.18V114.151H1650.66V121.359H1656.18V143.675C1656.18 150.654 1659.32 155.255 1668.45 155.255C1671.75 155.255 1674.59 154.718 1676.89 153.951V146.282C1675.12 146.743 1673.05 147.203 1670.83 147.203C1667.15 147.203 1666 145.592 1666 142.218V121.359H1676.04V114.151H1666V103.568ZM1700.56 112.617C1690.21 112.617 1683.61 116.758 1683.38 125.654H1693.05C1693.12 121.436 1695.27 119.826 1700.33 119.826C1705.85 119.826 1707.31 121.359 1707.31 126.037V128.031L1698.26 129.181C1686.37 130.638 1681.77 135.393 1681.77 142.832C1681.77 150.04 1686.76 155.255 1695.42 155.255C1699.72 155.255 1704.4 153.951 1707.46 149.963C1707.69 151.42 1708.08 152.877 1708.61 154.181H1718.51C1717.36 151.344 1717.13 148.506 1717.13 145.362V125.347C1717.13 117.372 1712.6 112.617 1700.56 112.617ZM1707.31 134.626V138.997C1707.31 144.059 1702.94 147.433 1697.95 147.433C1693.66 147.433 1691.82 145.209 1691.82 141.988C1691.82 138.154 1694.43 136.39 1700.79 135.546L1707.31 134.626ZM1739.24 103.568H1729.42V114.151H1723.9V121.359H1729.42V143.675C1729.42 150.654 1732.57 155.255 1741.69 155.255C1744.99 155.255 1747.83 154.718 1750.13 153.951V146.282C1748.36 146.743 1746.29 147.203 1744.07 147.203C1740.39 147.203 1739.24 145.592 1739.24 142.218V121.359H1749.28V114.151H1739.24V103.568ZM1762.38 95.6696C1759.23 95.6696 1756.4 98.2002 1756.4 101.421C1756.4 104.642 1759.23 107.249 1762.38 107.249C1765.6 107.249 1768.44 104.642 1768.44 101.421C1768.44 98.2002 1765.6 95.6696 1762.38 95.6696ZM1767.28 113.768H1757.47V154.181H1767.28V113.768ZM1812.49 113.768H1802.06L1793.09 145.516L1784.42 113.768H1773.61L1787.1 154.181H1798.91L1812.49 113.768ZM1835.31 112.617C1822.66 112.617 1815.76 121.513 1815.76 133.859C1815.76 146.052 1823.2 155.255 1835.93 155.255C1844.36 155.255 1850.34 151.804 1854.02 145.822L1846.05 141.758C1844.28 145.055 1841.14 147.433 1836.39 147.433C1829.94 147.433 1826.11 143.598 1825.8 136.16H1854.33V134.166C1854.33 121.666 1847.43 112.617 1835.31 112.617ZM1835.24 120.132C1840.53 120.132 1843.82 123.2 1844.28 129.488H1825.88C1826.42 123.353 1829.87 120.132 1835.24 120.132ZM1919.58 100.501H1909.07L1897.18 145.669L1885.3 100.501H1874.41L1890.51 154.181H1903.55L1919.58 100.501ZM1939.83 112.617C1929.48 112.617 1922.88 116.758 1922.65 125.654H1932.32C1932.39 121.436 1934.54 119.826 1939.6 119.826C1945.12 119.826 1946.58 121.359 1946.58 126.037V128.031L1937.53 129.181C1925.65 130.638 1921.04 135.393 1921.04 142.832C1921.04 150.04 1926.03 155.255 1934.69 155.255C1938.99 155.255 1943.67 153.951 1946.73 149.963C1946.96 151.42 1947.35 152.877 1947.88 154.181H1957.78C1956.63 151.344 1956.4 148.506 1956.4 145.362V125.347C1956.4 117.372 1951.87 112.617 1939.83 112.617ZM1946.58 134.626V138.997C1946.58 144.059 1942.21 147.433 1937.22 147.433C1932.93 147.433 1931.09 145.209 1931.09 141.988C1931.09 138.154 1933.7 136.39 1940.06 135.546L1946.58 134.626ZM1987.94 112.617C1983.57 112.617 1979.58 115.071 1976.82 120.363V113.768H1967.16V154.181H1976.97V136.62C1976.97 125.501 1981.88 122.51 1988.25 122.51C1988.78 122.51 1989.4 122.51 1990.7 122.586V112.847C1989.86 112.694 1988.86 112.617 1987.94 112.617ZM2002.77 95.6696C1999.63 95.6696 1996.79 98.2002 1996.79 101.421C1996.79 104.642 1999.63 107.249 2002.77 107.249C2005.99 107.249 2008.83 104.642 2008.83 101.421C2008.83 98.2002 2005.99 95.6696 2002.77 95.6696ZM2007.68 113.768H1997.86V154.181H2007.68V113.768ZM2035.17 112.617C2024.81 112.617 2018.22 116.758 2017.99 125.654H2027.65C2027.73 121.436 2029.87 119.826 2034.94 119.826C2040.46 119.826 2041.91 121.359 2041.91 126.037V128.031L2032.86 129.181C2020.98 130.638 2016.38 135.393 2016.38 142.832C2016.38 150.04 2021.36 155.255 2030.03 155.255C2034.32 155.255 2039 153.951 2042.07 149.963C2042.3 151.42 2042.68 152.877 2043.22 154.181H2053.11C2051.96 151.344 2051.73 148.506 2051.73 145.362V125.347C2051.73 117.372 2047.21 112.617 2035.17 112.617ZM2041.91 134.626V138.997C2041.91 144.059 2037.54 147.433 2032.56 147.433C2028.26 147.433 2026.42 145.209 2026.42 141.988C2026.42 138.154 2029.03 136.39 2035.4 135.546L2041.91 134.626ZM2072.31 100.501H2062.49V154.181H2072.15V149.887C2074.61 153.338 2078.44 155.255 2083.96 155.255C2094.47 155.255 2101.6 146.052 2101.6 134.013C2101.6 121.206 2094.47 112.617 2083.89 112.617C2079.59 112.617 2075.37 114.304 2072.31 117.985V100.501ZM2081.82 120.669C2087.8 120.669 2091.33 125.501 2091.33 134.089C2091.33 142.448 2087.41 147.279 2081.51 147.279C2076.07 147.279 2071.77 143.062 2071.77 134.089C2071.77 124.964 2075.83 120.669 2081.82 120.669ZM2119.93 100.501H2110.11V144.059C2110.11 151.42 2113.72 154.871 2120 154.871C2122 154.871 2123.69 154.641 2125.07 154.258V146.896C2124.22 146.973 2123.92 146.973 2123.38 146.973C2120.08 146.973 2119.93 146.129 2119.93 142.525V100.501ZM2150.29 112.617C2137.64 112.617 2130.74 121.513 2130.74 133.859C2130.74 146.052 2138.18 155.255 2150.91 155.255C2159.34 155.255 2165.33 151.804 2169.01 145.822L2161.03 141.758C2159.27 145.055 2156.12 147.433 2151.37 147.433C2144.93 147.433 2141.09 143.598 2140.79 136.16H2169.31V134.166C2169.31 121.666 2162.41 112.617 2150.29 112.617ZM2150.22 120.132C2155.51 120.132 2158.81 123.2 2159.27 129.488H2140.86C2141.4 123.353 2144.85 120.132 2150.22 120.132ZM2193.38 112.617C2183.65 112.617 2176.51 117.142 2176.51 125.04C2176.51 131.712 2180.96 135.546 2190.55 137.157C2199.6 138.691 2200.9 140.071 2200.9 142.832C2200.9 145.746 2198.22 147.586 2192.39 147.586C2187.63 147.586 2183.18 145.822 2179.58 142.295L2174.14 148.276C2178.35 152.571 2184.57 155.255 2193.08 155.255C2204.66 155.255 2211.02 149.963 2211.02 142.448C2211.02 134.703 2206.11 131.329 2196.37 129.642C2188.4 128.261 2186.48 127.341 2186.48 124.504C2186.48 121.896 2188.86 120.132 2193.61 120.132C2197.91 120.132 2201.67 121.743 2204.89 124.504L2210.18 118.829C2206.42 115.148 2200.9 112.617 2193.38 112.617Z" fill="#422986"/>
<path d="M152.141 96.016C139.257 96.016 126.758 104.068 126.758 124.083C126.758 145.018 140.024 152.304 152.064 152.304C162.493 152.304 172.003 147.012 175.99 136.046L166.251 132.902C163.95 139.727 159.656 143.561 152.217 143.561C142.248 143.561 137.264 136.046 137.264 124.006C137.264 111.89 142.938 104.758 152.141 104.758C158.736 104.758 162.647 108.056 165.024 114.191L174.993 111.43C170.622 99.8503 161.19 96.016 152.141 96.016ZM200.423 109.436C190.07 109.436 183.475 113.577 183.245 122.473H192.908C192.985 118.255 195.132 116.645 200.193 116.645C205.714 116.645 207.172 118.178 207.172 122.856V124.85L198.123 126C186.236 127.457 181.635 132.212 181.635 139.65C181.635 146.859 186.62 152.074 195.285 152.074C199.58 152.074 204.257 150.77 207.325 146.782C207.555 148.239 207.938 149.696 208.475 151H218.368C217.217 148.163 216.987 145.325 216.987 142.181V122.166C216.987 114.191 212.463 109.436 200.423 109.436ZM207.172 131.445V135.816C207.172 140.877 202.8 144.252 197.816 144.252C193.521 144.252 191.681 142.028 191.681 138.807C191.681 134.973 194.288 133.209 200.653 132.365L207.172 131.445ZM239.099 100.387H229.283V110.97H223.762V118.178H229.283V140.494C229.283 147.472 232.427 152.074 241.553 152.074C244.85 152.074 247.688 151.537 249.988 150.77V143.101C248.224 143.561 246.154 144.022 243.93 144.022C240.249 144.022 239.099 142.411 239.099 139.037V118.178H249.145V110.97H239.099V100.387ZM273.989 109.436C261.336 109.436 254.434 118.332 254.434 130.678C254.434 142.871 261.873 152.074 274.603 152.074C283.038 152.074 289.02 148.623 292.701 142.641L284.725 138.577C282.961 141.874 279.817 144.252 275.063 144.252C268.621 144.252 264.787 140.417 264.48 132.979H293.007V130.985C293.007 118.485 286.106 109.436 273.989 109.436ZM273.913 116.951C279.204 116.951 282.501 120.019 282.961 126.307H264.557C265.094 120.172 268.544 116.951 273.913 116.951ZM338.934 107.212C333.949 107.212 330.345 108.823 327.968 111.737C325.284 110.356 321.756 109.436 317.385 109.436C305.806 109.436 300.054 115.571 300.054 123.01C300.054 127.074 302.048 130.371 305.192 132.519C302.201 134.512 300.744 137.043 300.744 139.574C300.744 142.411 301.895 144.712 304.579 146.399C300.898 148.239 298.827 150.923 298.827 154.451C298.827 160.432 303.735 165.187 317.999 165.187C330.959 165.187 338.014 160.202 338.014 152.534C338.014 145.939 333.183 140.647 321.45 140.647H314.011C310.177 140.647 308.873 139.574 308.873 137.35C308.873 136.506 309.333 135.586 310.023 134.819C312.401 135.663 315.085 136.123 317.845 136.123C328.888 136.123 335.1 130.755 335.1 123.163C335.1 120.556 334.486 118.178 333.106 116.261C334.716 115.571 336.173 115.418 338.934 115.418V107.212ZM317.692 116.261C322.907 116.261 325.514 118.715 325.514 122.856C325.514 126.767 322.677 129.144 317.539 129.144C312.401 129.144 309.793 126.614 309.793 122.856C309.793 118.792 312.554 116.261 317.692 116.261ZM319.149 148.393C325.974 148.393 328.121 149.773 328.121 153.071C328.121 156.138 324.977 158.132 317.845 158.132C309.87 158.132 307.416 156.138 307.416 152.994C307.416 151.307 308.029 149.926 310.407 148.393H319.149ZM362.979 109.436C350.249 109.436 342.504 118.332 342.504 130.755C342.504 143.101 350.095 152.074 362.979 152.074C375.862 152.074 383.531 143.408 383.531 130.755C383.531 118.715 375.632 109.436 362.979 109.436ZM362.979 117.488C369.19 117.488 373.255 121.936 373.255 130.601C373.255 139.344 369.497 144.098 362.979 144.098C356.537 144.098 352.779 139.344 352.779 130.601C352.779 121.936 356.767 117.488 362.979 117.488ZM413.212 109.436C408.841 109.436 404.853 111.89 402.092 117.181V110.586H392.43V151H402.246V133.439C402.246 122.319 407.154 119.329 413.519 119.329C414.055 119.329 414.669 119.329 415.973 119.405V109.666C415.129 109.513 414.132 109.436 413.212 109.436ZM428.042 92.4884C424.898 92.4884 422.061 95.0191 422.061 98.2399C422.061 101.461 424.898 104.068 428.042 104.068C431.263 104.068 434.1 101.461 434.1 98.2399C434.1 95.0191 431.263 92.4884 428.042 92.4884ZM432.95 110.586H423.134V151H432.95V110.586ZM462.048 109.436C449.625 109.436 441.956 118.332 441.956 130.832C441.956 143.101 449.395 152.074 462.124 152.074C471.403 152.074 477.462 147.166 480.606 140.264L472.094 136.736C470.56 140.724 468.106 144.098 462.585 144.098C456.143 144.098 452.232 139.344 452.232 130.678C452.232 122.013 456.373 117.488 462.508 117.488C466.802 117.488 469.87 119.712 471.48 123.7L479.992 120.249C477.002 113.73 470.79 109.436 462.048 109.436ZM504.622 109.436C494.269 109.436 487.674 113.577 487.444 122.473H497.107C497.183 118.255 499.33 116.645 504.392 116.645C509.913 116.645 511.37 118.178 511.37 122.856V124.85L502.321 126C490.435 127.457 485.834 132.212 485.834 139.65C485.834 146.859 490.818 152.074 499.484 152.074C503.778 152.074 508.456 150.77 511.524 146.782C511.754 148.239 512.137 149.696 512.674 151H522.566C521.416 148.163 521.186 145.325 521.186 142.181V122.166C521.186 114.191 516.662 109.436 504.622 109.436ZM511.37 131.445V135.816C511.37 140.877 506.999 144.252 502.014 144.252C497.72 144.252 495.88 142.028 495.88 138.807C495.88 134.973 498.487 133.209 504.852 132.365L511.37 131.445ZM541.38 97.3196H531.564V140.877C531.564 148.239 535.169 151.69 541.457 151.69C543.451 151.69 545.138 151.46 546.518 151.077V143.715C545.675 143.791 545.368 143.791 544.831 143.791C541.534 143.791 541.38 142.948 541.38 139.344V97.3196ZM610.928 97.3196H600.422L588.535 142.488L576.649 97.3196H565.759L581.863 151H594.9L610.928 97.3196ZM631.184 109.436C620.831 109.436 614.236 113.577 614.006 122.473H623.669C623.745 118.255 625.893 116.645 630.954 116.645C636.475 116.645 637.932 118.178 637.932 122.856V124.85L628.883 126C616.997 127.457 612.396 132.212 612.396 139.65C612.396 146.859 617.381 152.074 626.046 152.074C630.34 152.074 635.018 150.77 638.086 146.782C638.316 148.239 638.699 149.696 639.236 151H649.129C647.978 148.163 647.748 145.325 647.748 142.181V122.166C647.748 114.191 643.224 109.436 631.184 109.436ZM637.932 131.445V135.816C637.932 140.877 633.561 144.252 628.577 144.252C624.282 144.252 622.442 142.028 622.442 138.807C622.442 134.973 625.049 133.209 631.414 132.365L637.932 131.445ZM679.292 109.436C674.921 109.436 670.933 111.89 668.173 117.181V110.586H658.51V151H668.326V133.439C668.326 122.319 673.234 119.329 679.599 119.329C680.136 119.329 680.749 119.329 682.053 119.405V109.666C681.209 109.513 680.212 109.436 679.292 109.436ZM694.122 92.4884C690.978 92.4884 688.141 95.0191 688.141 98.2399C688.141 101.461 690.978 104.068 694.122 104.068C697.343 104.068 700.181 101.461 700.181 98.2399C700.181 95.0191 697.343 92.4884 694.122 92.4884ZM699.03 110.586H689.215V151H699.03V110.586ZM726.518 109.436C716.165 109.436 709.57 113.577 709.34 122.473H719.002C719.079 118.255 721.226 116.645 726.288 116.645C731.809 116.645 733.266 118.178 733.266 122.856V124.85L724.217 126C712.331 127.457 707.729 132.212 707.729 139.65C707.729 146.859 712.714 152.074 721.38 152.074C725.674 152.074 730.352 150.77 733.419 146.782C733.649 148.239 734.033 149.696 734.57 151H744.462C743.312 148.163 743.082 145.325 743.082 142.181V122.166C743.082 114.191 738.557 109.436 726.518 109.436ZM733.266 131.445V135.816C733.266 140.877 728.895 144.252 723.91 144.252C719.616 144.252 717.775 142.028 717.775 138.807C717.775 134.973 720.383 133.209 726.748 132.365L733.266 131.445ZM763.66 97.3196H753.844V151H763.506V146.706C765.96 150.156 769.794 152.074 775.316 152.074C785.822 152.074 792.954 142.871 792.954 130.832C792.954 118.025 785.822 109.436 775.239 109.436C770.945 109.436 766.727 111.123 763.66 114.804V97.3196ZM773.169 117.488C779.15 117.488 782.678 122.319 782.678 130.908C782.678 139.267 778.767 144.098 772.862 144.098C767.417 144.098 763.123 139.88 763.123 130.908C763.123 121.783 767.187 117.488 773.169 117.488ZM811.28 97.3196H801.464V140.877C801.464 148.239 805.068 151.69 811.357 151.69C813.35 151.69 815.037 151.46 816.418 151.077V143.715C815.574 143.791 815.268 143.791 814.731 143.791C811.433 143.791 811.28 142.948 811.28 139.344V97.3196ZM841.647 109.436C828.994 109.436 822.092 118.332 822.092 130.678C822.092 142.871 829.531 152.074 842.261 152.074C850.696 152.074 856.678 148.623 860.358 142.641L852.383 138.577C850.619 141.874 847.475 144.252 842.721 144.252C836.279 144.252 832.445 140.417 832.138 132.979H860.665V130.985C860.665 118.485 853.763 109.436 841.647 109.436ZM841.57 116.951C846.862 116.951 850.159 120.019 850.619 126.307H832.215C832.751 120.172 836.202 116.951 841.57 116.951ZM884.736 109.436C874.997 109.436 867.865 113.961 867.865 121.859C867.865 128.531 872.313 132.365 881.899 133.976C890.948 135.509 892.251 136.89 892.251 139.65C892.251 142.565 889.567 144.405 883.739 144.405C878.985 144.405 874.537 142.641 870.933 139.114L865.488 145.095C869.706 149.39 875.917 152.074 884.429 152.074C896.009 152.074 902.374 146.782 902.374 139.267C902.374 131.522 897.466 128.148 887.727 126.46C879.752 125.08 877.834 124.16 877.834 121.322C877.834 118.715 880.212 116.951 884.966 116.951C889.261 116.951 893.018 118.562 896.239 121.322L901.531 115.648C897.773 111.967 892.251 109.436 884.736 109.436Z" fill="#004794"/>
<path d="M168.493 341.568H144.273V378.911H168.973V372.936H151.315V362.8H167.372V356.932H151.315V347.543H168.493V341.568ZM199.049 350.797H191.794L185.926 373.95L179.578 350.797H172.003L181.392 378.911H183.899C183.099 382.432 182.192 383.552 178.244 383.552C177.444 383.552 177.017 383.552 175.79 383.445V388.407C176.804 388.62 178.084 388.78 179.471 388.78C186.246 388.78 188.487 385.419 190.034 380.244L199.049 350.797ZM214.983 349.997C206.18 349.997 201.379 356.185 201.379 364.774C201.379 373.256 206.554 379.658 215.409 379.658C221.278 379.658 225.439 377.257 227.999 373.096L222.451 370.269C221.224 372.562 219.037 374.216 215.73 374.216C211.248 374.216 208.581 371.549 208.368 366.374H228.213V364.987C228.213 356.292 223.412 349.997 214.983 349.997ZM214.929 355.225C218.61 355.225 220.904 357.359 221.224 361.733H208.421C208.794 357.465 211.195 355.225 214.929 355.225ZM258.023 349.997C249.381 349.997 244.046 356.185 244.046 364.881C244.046 373.416 249.221 379.658 258.077 379.658C264.532 379.658 268.746 376.243 270.933 371.442L265.012 368.988C263.945 371.762 262.238 374.11 258.397 374.11C253.916 374.11 251.195 370.802 251.195 364.774C251.195 358.746 254.076 355.598 258.343 355.598C261.331 355.598 263.465 357.145 264.585 359.919L270.506 357.519C268.426 352.984 264.105 349.997 258.023 349.997ZM289.027 349.997C280.171 349.997 274.783 356.185 274.783 364.827C274.783 373.416 280.065 379.658 289.027 379.658C297.989 379.658 303.324 373.629 303.324 364.827C303.324 356.452 297.829 349.997 289.027 349.997ZM289.027 355.598C293.348 355.598 296.176 358.692 296.176 364.72C296.176 370.802 293.562 374.11 289.027 374.11C284.546 374.11 281.932 370.802 281.932 364.72C281.932 358.692 284.706 355.598 289.027 355.598ZM316.076 341.568H309.248V371.869C309.248 376.99 311.755 379.391 316.13 379.391C317.517 379.391 318.69 379.231 319.651 378.964V373.843C319.064 373.896 318.85 373.896 318.477 373.896C316.183 373.896 316.076 373.309 316.076 370.802V341.568ZM337.842 349.997C328.986 349.997 323.598 356.185 323.598 364.827C323.598 373.416 328.879 379.658 337.842 379.658C346.804 379.658 352.139 373.629 352.139 364.827C352.139 356.452 346.644 349.997 337.842 349.997ZM337.842 355.598C342.163 355.598 344.99 358.692 344.99 364.72C344.99 370.802 342.376 374.11 337.842 374.11C333.36 374.11 330.746 370.802 330.746 364.72C330.746 358.692 333.52 355.598 337.842 355.598ZM372.786 349.997C369.746 349.997 366.971 351.704 365.051 355.385V350.797H358.329V378.911H365.158V366.694C365.158 358.959 368.572 356.878 373 356.878C373.373 356.878 373.8 356.878 374.707 356.932V350.157C374.12 350.05 373.426 349.997 372.786 349.997ZM160.33 420.608C151.261 420.608 142.673 426.476 142.673 440.453C142.673 454.91 151.528 459.924 159.424 459.924C163.851 459.924 167.372 458.377 169.933 455.443V458.911H176.601V438.639H161.024V444.187H169.506V445.841C169.506 451.015 165.612 453.95 160.33 453.95C153.342 453.95 149.981 448.722 149.981 440.346C149.981 431.811 153.502 426.529 160.277 426.529C165.078 426.529 167.959 428.823 169.666 432.931L176.068 430.53C173.027 423.435 166.892 420.608 160.33 420.608ZM195.967 429.997C187.165 429.997 182.364 436.185 182.364 444.774C182.364 453.256 187.539 459.658 196.394 459.658C202.262 459.658 206.423 457.257 208.984 453.096L203.436 450.269C202.209 452.562 200.022 454.216 196.714 454.216C192.233 454.216 189.566 451.549 189.352 446.374H209.197V444.987C209.197 436.292 204.396 429.997 195.967 429.997ZM195.914 435.225C199.595 435.225 201.889 437.359 202.209 441.733H189.406C189.779 437.465 192.18 435.225 195.914 435.225ZM230.37 429.997C227.063 429.997 224.075 431.33 221.942 434.425V430.797H215.22V458.911H222.048V443.173C222.048 438.799 224.716 435.812 228.29 435.812C232.131 435.812 233.091 438.426 233.091 442.907V458.911H239.919V440.719C239.919 433.998 236.505 429.997 230.37 429.997ZM272.971 421.568H266.143V433.464C264.382 431.277 261.822 429.997 258.301 429.997C250.992 429.997 245.818 436.078 245.818 444.881C245.818 453.576 250.619 459.658 258.141 459.658C261.022 459.658 264.169 458.591 266.303 455.763V458.911H272.971V421.568ZM259.848 435.545C263.636 435.545 266.516 438.586 266.516 444.827C266.516 451.122 263.849 454.056 259.848 454.056C255.367 454.056 252.966 450.855 252.966 444.827C252.966 438.852 255.473 435.545 259.848 435.545ZM292.815 429.997C284.013 429.997 279.212 436.185 279.212 444.774C279.212 453.256 284.386 459.658 293.242 459.658C299.11 459.658 303.271 457.257 305.832 453.096L300.284 450.269C299.057 452.562 296.869 454.216 293.562 454.216C289.081 454.216 286.413 451.549 286.2 446.374H306.045V444.987C306.045 436.292 301.244 429.997 292.815 429.997ZM292.762 435.225C296.443 435.225 298.737 437.359 299.057 441.733H286.253C286.627 437.465 289.027 435.225 292.762 435.225ZM326.524 429.997C323.484 429.997 320.71 431.704 318.789 435.385V430.797H312.067V458.911H318.896V446.694C318.896 438.959 322.31 436.878 326.738 436.878C327.111 436.878 327.538 436.878 328.445 436.932V430.157C327.858 430.05 327.165 429.997 326.524 429.997ZM165.398 518.746C169.186 517.785 171.64 515.385 171.64 511.117C171.64 505.089 167.532 501.568 157.236 501.568H144.273V538.911H159.317C169.399 538.911 173.667 534.376 173.667 528.188C173.667 523.173 170.946 519.813 165.398 518.746ZM157.823 507.383C162.091 507.383 164.385 508.556 164.385 511.917C164.385 515.331 161.931 516.665 158.73 516.665H151.315V507.383H157.823ZM159.637 533.096H151.315V521.946H159.53C162.678 521.946 166.252 522.907 166.252 527.708C166.252 531.389 163.478 533.096 159.637 533.096ZM193.574 509.997C190.533 509.997 187.759 511.704 185.839 515.385V510.797H179.117V538.911H185.945V526.694C185.945 518.959 189.36 516.878 193.787 516.878C194.161 516.878 194.588 516.878 195.494 516.932V510.157C194.908 510.05 194.214 509.997 193.574 509.997ZM212.065 509.997C203.263 509.997 198.462 516.185 198.462 524.774C198.462 533.256 203.636 539.658 212.492 539.658C218.36 539.658 222.521 537.257 225.082 533.096L219.534 530.269C218.307 532.562 216.12 534.216 212.812 534.216C208.331 534.216 205.664 531.549 205.45 526.374H225.295V524.987C225.295 516.292 220.494 509.997 212.065 509.997ZM212.012 515.225C215.693 515.225 217.987 517.359 218.307 521.733H205.504C205.877 517.465 208.278 515.225 212.012 515.225ZM243.427 509.997C234.625 509.997 229.824 516.185 229.824 524.774C229.824 533.256 234.999 539.658 243.854 539.658C249.722 539.658 253.883 537.257 256.444 533.096L250.896 530.269C249.669 532.562 247.482 534.216 244.174 534.216C239.693 534.216 237.026 531.549 236.812 526.374H256.658V524.987C256.658 516.292 251.856 509.997 243.427 509.997ZM243.374 515.225C247.055 515.225 249.349 517.359 249.669 521.733H236.866C237.239 517.465 239.64 515.225 243.374 515.225ZM288.34 501.568H281.511V513.464C279.751 511.277 277.19 509.997 273.669 509.997C266.361 509.997 261.186 516.078 261.186 524.881C261.186 533.576 265.987 539.658 273.509 539.658C276.39 539.658 279.538 538.591 281.671 535.763V538.911H288.34V501.568ZM275.216 515.545C279.004 515.545 281.885 518.586 281.885 524.827C281.885 531.122 279.217 534.056 275.216 534.056C270.735 534.056 268.335 530.855 268.335 524.827C268.335 518.852 270.842 515.545 275.216 515.545ZM320.129 509.997C311.273 509.997 305.885 516.185 305.885 524.827C305.885 533.416 311.166 539.658 320.129 539.658C329.091 539.658 334.426 533.629 334.426 524.827C334.426 516.452 328.931 509.997 320.129 509.997ZM320.129 515.598C324.45 515.598 327.277 518.692 327.277 524.72C327.277 530.802 324.663 534.11 320.129 534.11C315.648 534.11 313.034 530.802 313.034 524.72C313.034 518.692 315.808 515.598 320.129 515.598ZM350.859 500.608C344.297 500.608 341.683 503.969 341.683 508.396V511.064H337.842V516.078H341.683V538.911H348.512V516.078H355.66V511.064H348.512V508.823C348.512 506.422 349.685 505.836 352.033 505.836C353.58 505.836 355.607 506.262 356.887 506.636V501.568C355.233 501.034 353.046 500.608 350.859 500.608ZM396.961 501.568H390.133V513.464C388.372 511.277 385.812 509.997 382.291 509.997C374.982 509.997 369.808 516.078 369.808 524.881C369.808 533.576 374.609 539.658 382.131 539.658C385.011 539.658 388.159 538.591 390.293 535.763V538.911H396.961V501.568ZM383.838 515.545C387.625 515.545 390.506 518.586 390.506 524.827C390.506 531.122 387.839 534.056 383.838 534.056C379.357 534.056 376.956 530.855 376.956 524.827C376.956 518.852 379.463 515.545 383.838 515.545ZM417.445 509.997C408.59 509.997 403.202 516.185 403.202 524.827C403.202 533.416 408.483 539.658 417.445 539.658C426.407 539.658 431.742 533.629 431.742 524.827C431.742 516.452 426.247 509.997 417.445 509.997ZM417.445 515.598C421.766 515.598 424.594 518.692 424.594 524.72C424.594 530.802 421.98 534.11 417.445 534.11C412.964 534.11 410.35 530.802 410.35 524.72C410.35 518.692 413.124 515.598 417.445 515.598ZM463.86 508.45C460.392 508.45 457.885 509.57 456.231 511.597C454.364 510.637 451.91 509.997 448.869 509.997C440.814 509.997 436.813 514.264 436.813 519.439C436.813 522.267 438.2 524.56 440.387 526.054C438.306 527.441 437.293 529.202 437.293 530.962C437.293 532.936 438.093 534.536 439.96 535.71C437.399 536.99 435.959 538.857 435.959 541.311C435.959 545.472 439.373 548.78 449.296 548.78C458.311 548.78 463.219 545.312 463.219 539.978C463.219 535.39 459.858 531.709 451.696 531.709H446.522C443.854 531.709 442.948 530.962 442.948 529.415C442.948 528.828 443.268 528.188 443.748 527.655C445.401 528.241 447.269 528.561 449.189 528.561C456.871 528.561 461.192 524.827 461.192 519.546C461.192 517.732 460.765 516.078 459.805 514.745C460.925 514.264 461.939 514.158 463.86 514.158V508.45ZM449.082 514.745C452.71 514.745 454.524 516.452 454.524 519.332C454.524 522.053 452.55 523.707 448.976 523.707C445.401 523.707 443.588 521.946 443.588 519.332C443.588 516.505 445.508 514.745 449.082 514.745ZM450.096 537.097C454.844 537.097 456.338 538.057 456.338 540.351C456.338 542.485 454.15 543.872 449.189 543.872C443.641 543.872 441.934 542.485 441.934 540.298C441.934 539.124 442.361 538.164 444.014 537.097H450.096ZM151.315 581.568H144.273V618.911H167.746V612.723H151.315V581.568ZM185.027 589.997C176.225 589.997 171.424 596.185 171.424 604.774C171.424 613.256 176.598 619.658 185.454 619.658C191.322 619.658 195.483 617.257 198.044 613.096L192.496 610.269C191.269 612.562 189.082 614.216 185.774 614.216C181.293 614.216 178.626 611.549 178.412 606.374H198.257V604.987C198.257 596.292 193.456 589.997 185.027 589.997ZM184.974 595.225C188.655 595.225 190.949 597.359 191.269 601.733H178.465C178.839 597.465 181.24 595.225 184.974 595.225ZM227.445 590.797H220.189L213.948 612.883L207.92 590.797H200.398L209.787 618.911H218.002L227.445 590.797ZM243.323 589.997C234.521 589.997 229.72 596.185 229.72 604.774C229.72 613.256 234.894 619.658 243.75 619.658C249.618 619.658 253.779 617.257 256.34 613.096L250.792 610.269C249.565 612.562 247.378 614.216 244.07 614.216C239.589 614.216 236.922 611.549 236.708 606.374H256.553V604.987C256.553 596.292 251.752 589.997 243.323 589.997ZM243.27 595.225C246.951 595.225 249.245 597.359 249.565 601.733H236.762C237.135 597.465 239.536 595.225 243.27 595.225ZM269.137 581.568H262.309V611.869C262.309 616.99 264.816 619.391 269.191 619.391C270.578 619.391 271.751 619.231 272.712 618.964V613.843C272.125 613.896 271.911 613.896 271.538 613.896C269.244 613.896 269.137 613.309 269.137 610.802V581.568ZM302.207 589.997C293.352 589.997 287.964 596.185 287.964 604.827C287.964 613.416 293.245 619.658 302.207 619.658C311.17 619.658 316.504 613.629 316.504 604.827C316.504 596.452 311.01 589.997 302.207 589.997ZM302.207 595.598C306.529 595.598 309.356 598.692 309.356 604.72C309.356 610.802 306.742 614.11 302.207 614.11C297.726 614.11 295.112 610.802 295.112 604.72C295.112 598.692 297.886 595.598 302.207 595.598ZM332.938 580.608C326.376 580.608 323.762 583.969 323.762 588.396V591.064H319.921V596.078H323.762V618.911H330.591V596.078H337.739V591.064H330.591V588.823C330.591 586.422 331.764 585.836 334.111 585.836C335.658 585.836 337.686 586.262 338.966 586.636V581.568C337.312 581.034 335.125 580.608 332.938 580.608ZM365.49 589.997C356.688 589.997 351.886 596.185 351.886 604.774C351.886 613.256 357.061 619.658 365.917 619.658C371.785 619.658 375.946 617.257 378.506 613.096L372.958 610.269C371.731 612.562 369.544 614.216 366.237 614.216C361.756 614.216 359.088 611.549 358.875 606.374H378.72V604.987C378.72 596.292 373.919 589.997 365.49 589.997ZM365.436 595.225C369.117 595.225 371.411 597.359 371.731 601.733H358.928C359.302 597.465 361.702 595.225 365.436 595.225ZM410.402 581.568H403.574V593.464C401.813 591.277 399.253 589.997 395.732 589.997C388.423 589.997 383.249 596.078 383.249 604.881C383.249 613.576 388.05 619.658 395.572 619.658C398.452 619.658 401.6 618.591 403.734 615.763V618.911H410.402V581.568ZM397.279 595.545C401.066 595.545 403.947 598.586 403.947 604.827C403.947 611.122 401.28 614.056 397.279 614.056C392.798 614.056 390.397 610.855 390.397 604.827C390.397 598.852 392.904 595.545 397.279 595.545ZM442.249 590.797H435.421V606.801C435.421 611.122 432.86 613.789 429.286 613.789C426.085 613.789 424.698 612.242 424.698 608.348V590.797H417.869V609.895C417.869 616.51 421.764 619.658 427.312 619.658C430.513 619.658 433.447 618.324 435.527 615.657V618.911H442.249V590.797ZM462.398 589.997C453.756 589.997 448.421 596.185 448.421 604.881C448.421 613.416 453.596 619.658 462.452 619.658C468.907 619.658 473.121 616.243 475.308 611.442L469.387 608.988C468.32 611.762 466.613 614.11 462.772 614.11C458.291 614.11 455.57 610.802 455.57 604.774C455.57 598.746 458.451 595.598 462.718 595.598C465.706 595.598 467.84 597.145 468.96 599.919L474.881 597.519C472.801 592.984 468.48 589.997 462.398 589.997ZM492.015 589.997C484.813 589.997 480.225 592.877 480.065 599.066H486.787C486.84 596.132 488.334 595.011 491.855 595.011C495.696 595.011 496.71 596.078 496.71 599.332V600.719L490.415 601.52C482.146 602.533 478.945 605.841 478.945 611.015C478.945 616.03 482.413 619.658 488.441 619.658C491.428 619.658 494.682 618.751 496.816 615.977C496.976 616.99 497.243 618.004 497.616 618.911H504.498C503.698 616.937 503.538 614.963 503.538 612.776V598.852C503.538 593.304 500.391 589.997 492.015 589.997ZM496.71 605.307V608.348C496.71 611.869 493.669 614.216 490.201 614.216C487.214 614.216 485.933 612.669 485.933 610.429C485.933 607.761 487.747 606.534 492.175 605.947L496.71 605.307ZM518.92 583.702H512.091V591.064H508.25V596.078H512.091V611.602C512.091 616.457 514.279 619.658 520.627 619.658C522.921 619.658 524.895 619.284 526.495 618.751V613.416C525.268 613.736 523.828 614.056 522.281 614.056C519.72 614.056 518.92 612.936 518.92 610.589V596.078H525.908V591.064H518.92V583.702ZM535.017 578.207C532.83 578.207 530.856 579.968 530.856 582.208C530.856 584.449 532.83 586.262 535.017 586.262C537.257 586.262 539.231 584.449 539.231 582.208C539.231 579.968 537.257 578.207 535.017 578.207ZM538.431 590.797H531.603V618.911H538.431V590.797ZM558.94 589.997C550.084 589.997 544.696 596.185 544.696 604.827C544.696 613.416 549.977 619.658 558.94 619.658C567.902 619.658 573.237 613.629 573.237 604.827C573.237 596.452 567.742 589.997 558.94 589.997ZM558.94 595.598C563.261 595.598 566.088 598.692 566.088 604.72C566.088 610.802 563.474 614.11 558.94 614.11C554.458 614.11 551.844 610.802 551.844 604.72C551.844 598.692 554.618 595.598 558.94 595.598ZM594.578 589.997C591.27 589.997 588.283 591.33 586.149 594.425V590.797H579.427V618.911H586.256V603.173C586.256 598.799 588.923 595.812 592.497 595.812C596.338 595.812 597.299 598.426 597.299 602.907V618.911H604.127V600.719C604.127 593.998 600.713 589.997 594.578 589.997ZM180.122 661.568H169.346L162.998 690.695L156.596 661.568H145.82L142.886 698.911H149.661L151.795 668.29L158.943 698.911H166.785L173.987 668.29L176.174 698.911H183.003L180.122 661.568ZM201.055 669.997C193.854 669.997 189.266 672.877 189.106 679.066H195.827C195.881 676.132 197.374 675.011 200.895 675.011C204.736 675.011 205.75 676.078 205.75 679.332V680.719L199.455 681.52C191.186 682.533 187.985 685.841 187.985 691.015C187.985 696.03 191.453 699.658 197.481 699.658C200.469 699.658 203.723 698.751 205.857 695.977C206.017 696.99 206.283 698.004 206.657 698.911H213.539C212.738 696.937 212.578 694.963 212.578 692.776V678.852C212.578 673.304 209.431 669.997 201.055 669.997ZM205.75 685.307V688.348C205.75 691.869 202.709 694.216 199.242 694.216C196.254 694.216 194.974 692.669 194.974 690.429C194.974 687.761 196.788 686.534 201.215 685.947L205.75 685.307ZM234.522 669.997C231.481 669.997 228.707 671.704 226.787 675.385V670.797H220.065V698.911H226.893V686.694C226.893 678.959 230.307 676.878 234.735 676.878C235.109 676.878 235.535 676.878 236.442 676.932V670.157C235.856 670.05 235.162 669.997 234.522 669.997ZM244.839 658.207C242.651 658.207 240.678 659.968 240.678 662.208C240.678 664.449 242.651 666.262 244.839 666.262C247.079 666.262 249.053 664.449 249.053 662.208C249.053 659.968 247.079 658.207 244.839 658.207ZM248.253 670.797H241.424V698.911H248.253V670.797ZM263.907 663.702H257.078V671.064H253.237V676.078H257.078V691.602C257.078 696.457 259.266 699.658 265.614 699.658C267.908 699.658 269.882 699.284 271.482 698.751V693.416C270.255 693.736 268.815 694.056 267.268 694.056C264.707 694.056 263.907 692.936 263.907 690.589V676.078H270.895V671.064H263.907V663.702ZM287.953 669.997C280.751 669.997 276.163 672.877 276.003 679.066H282.725C282.778 676.132 284.272 675.011 287.793 675.011C291.634 675.011 292.647 676.078 292.647 679.332V680.719L286.352 681.52C278.083 682.533 274.883 685.841 274.883 691.015C274.883 696.03 278.35 699.658 284.378 699.658C287.366 699.658 290.62 698.751 292.754 695.977C292.914 696.99 293.181 698.004 293.554 698.911H300.436C299.636 696.937 299.476 694.963 299.476 692.776V678.852C299.476 673.304 296.328 669.997 287.953 669.997ZM292.647 685.307V688.348C292.647 691.869 289.606 694.216 286.139 694.216C283.151 694.216 281.871 692.669 281.871 690.429C281.871 687.761 283.685 686.534 288.113 685.947L292.647 685.307ZM313.524 661.568H306.695V691.869C306.695 696.99 309.203 699.391 313.577 699.391C314.964 699.391 316.138 699.231 317.098 698.964V693.843C316.511 693.896 316.298 693.896 315.924 693.896C313.63 693.896 313.524 693.309 313.524 690.802V661.568ZM344.567 669.997C337.792 669.997 332.83 673.144 332.83 678.639C332.83 683.28 335.924 685.947 342.593 687.068C348.888 688.135 349.795 689.095 349.795 691.015C349.795 693.043 347.927 694.323 343.873 694.323C340.566 694.323 337.471 693.096 334.964 690.642L331.177 694.803C334.111 697.79 338.432 699.658 344.353 699.658C352.409 699.658 356.836 695.977 356.836 690.749C356.836 685.361 353.422 683.013 346.647 681.84C341.099 680.879 339.765 680.239 339.765 678.265C339.765 676.452 341.419 675.225 344.727 675.225C347.714 675.225 350.328 676.345 352.569 678.265L356.25 674.318C353.636 671.757 349.795 669.997 344.567 669.997ZM370.392 663.702H363.564V671.064H359.723V676.078H363.564V691.602C363.564 696.457 365.751 699.658 372.099 699.658C374.393 699.658 376.367 699.284 377.968 698.751V693.416C376.741 693.736 375.3 694.056 373.753 694.056C371.193 694.056 370.392 692.936 370.392 690.589V676.078H377.381V671.064H370.392V663.702ZM394.438 669.997C387.236 669.997 382.648 672.877 382.488 679.066H389.21C389.263 676.132 390.757 675.011 394.278 675.011C398.119 675.011 399.133 676.078 399.133 679.332V680.719L392.838 681.52C384.569 682.533 381.368 685.841 381.368 691.015C381.368 696.03 384.836 699.658 390.864 699.658C393.851 699.658 397.105 698.751 399.239 695.977C399.399 696.99 399.666 698.004 400.039 698.911H406.921C406.121 696.937 405.961 694.963 405.961 692.776V678.852C405.961 673.304 402.814 669.997 394.438 669.997ZM399.133 685.307V688.348C399.133 691.869 396.092 694.216 392.624 694.216C389.637 694.216 388.357 692.669 388.357 690.429C388.357 687.761 390.17 686.534 394.598 685.947L399.133 685.307ZM421.343 663.702H414.514V671.064H410.673V676.078H414.514V691.602C414.514 696.457 416.702 699.658 423.05 699.658C425.344 699.658 427.318 699.284 428.918 698.751V693.416C427.691 693.736 426.251 694.056 424.704 694.056C422.143 694.056 421.343 692.936 421.343 690.589V676.078H428.331V671.064H421.343V663.702ZM458.138 670.797H451.31V686.801C451.31 691.122 448.749 693.789 445.175 693.789C441.974 693.789 440.587 692.242 440.587 688.348V670.797H433.759V689.895C433.759 696.51 437.653 699.658 443.201 699.658C446.402 699.658 449.336 698.324 451.417 695.657V698.911H458.138V670.797ZM476.527 669.997C469.752 669.997 464.791 673.144 464.791 678.639C464.791 683.28 467.885 685.947 474.554 687.068C480.848 688.135 481.755 689.095 481.755 691.015C481.755 693.043 479.888 694.323 475.834 694.323C472.526 694.323 469.432 693.096 466.925 690.642L463.137 694.803C466.071 697.79 470.392 699.658 476.314 699.658C484.369 699.658 488.797 695.977 488.797 690.749C488.797 685.361 485.383 683.013 478.608 681.84C473.06 680.879 471.726 680.239 471.726 678.265C471.726 676.452 473.38 675.225 476.687 675.225C479.675 675.225 482.289 676.345 484.529 678.265L488.21 674.318C485.596 671.757 481.755 669.997 476.527 669.997Z" fill="#004794"/>
<path d="M1457.75 341.568H1451.25V368.295L1435.78 341.568H1427.93V378.911H1434.44V352.877L1449.81 378.911H1457.75V341.568ZM1489.91 350.797H1483.08V366.801C1483.08 371.122 1480.52 373.789 1476.95 373.789C1473.75 373.789 1472.36 372.242 1472.36 368.348V350.797H1465.53V369.895C1465.53 376.51 1469.43 379.658 1474.97 379.658C1478.18 379.658 1481.11 378.324 1483.19 375.657V378.911H1489.91V350.797ZM1528.79 349.997C1525.37 349.997 1522.01 351.33 1519.88 354.638C1518.54 351.704 1515.93 349.997 1512.04 349.997C1508.89 349.997 1506.33 351.224 1504.3 353.998V350.797H1497.58V378.911H1504.41V363.067C1504.41 358.746 1506.81 355.812 1510.06 355.812C1513.74 355.812 1514.33 358.372 1514.33 363.654V378.911H1521.16V363.067C1521.16 358.746 1523.5 355.812 1526.76 355.812C1530.39 355.812 1531.08 358.372 1531.08 363.654V378.911H1537.91V360.826C1537.91 353.998 1534.87 349.997 1528.79 349.997ZM1552.13 341.568H1545.3V378.911H1552.02V375.923C1553.73 378.324 1556.39 379.658 1560.24 379.658C1567.54 379.658 1572.51 373.256 1572.51 364.881C1572.51 355.972 1567.54 349.997 1560.18 349.997C1557.19 349.997 1554.26 351.17 1552.13 353.731V341.568ZM1558.74 355.598C1562.9 355.598 1565.36 358.959 1565.36 364.934C1565.36 370.749 1562.64 374.11 1558.53 374.11C1554.74 374.11 1551.75 371.175 1551.75 364.934C1551.75 358.586 1554.58 355.598 1558.74 355.598ZM1590.8 349.997C1582 349.997 1577.2 356.185 1577.2 364.774C1577.2 373.256 1582.37 379.658 1591.23 379.658C1597.1 379.658 1601.26 377.257 1603.82 373.096L1598.27 370.269C1597.04 372.562 1594.86 374.216 1591.55 374.216C1587.07 374.216 1584.4 371.549 1584.19 366.374H1604.03V364.987C1604.03 356.292 1599.23 349.997 1590.8 349.997ZM1590.75 355.225C1594.43 355.225 1596.72 357.359 1597.04 361.733H1584.24C1584.61 357.465 1587.01 355.225 1590.75 355.225ZM1624.51 349.997C1621.47 349.997 1618.7 351.704 1616.78 355.385V350.797H1610.05V378.911H1616.88V366.694C1616.88 358.959 1620.3 356.878 1624.73 356.878C1625.1 356.878 1625.53 356.878 1626.43 356.932V350.157C1625.85 350.05 1625.15 349.997 1624.51 349.997ZM1655.47 349.997C1646.61 349.997 1641.23 356.185 1641.23 364.827C1641.23 373.416 1646.51 379.658 1655.47 379.658C1664.43 379.658 1669.77 373.629 1669.77 364.827C1669.77 356.452 1664.27 349.997 1655.47 349.997ZM1655.47 355.598C1659.79 355.598 1662.62 358.692 1662.62 364.72C1662.62 370.802 1660 374.11 1655.47 374.11C1650.99 374.11 1648.37 370.802 1648.37 364.72C1648.37 358.692 1651.15 355.598 1655.47 355.598ZM1686.2 340.608C1679.64 340.608 1677.02 343.969 1677.02 348.396V351.064H1673.18V356.078H1677.02V378.911H1683.85V356.078H1691V351.064H1683.85V348.823C1683.85 346.422 1685.03 345.836 1687.37 345.836C1688.92 345.836 1690.95 346.262 1692.23 346.636V341.568C1690.57 341.034 1688.39 340.608 1686.2 340.608ZM1717.36 349.997C1710.59 349.997 1705.63 353.144 1705.63 358.639C1705.63 363.28 1708.72 365.947 1715.39 367.068C1721.69 368.135 1722.59 369.095 1722.59 371.015C1722.59 373.043 1720.73 374.323 1716.67 374.323C1713.36 374.323 1710.27 373.096 1707.76 370.642L1703.97 374.803C1706.91 377.79 1711.23 379.658 1717.15 379.658C1725.21 379.658 1729.63 375.977 1729.63 370.749C1729.63 365.361 1726.22 363.013 1719.45 361.84C1713.9 360.879 1712.56 360.239 1712.56 358.265C1712.56 356.452 1714.22 355.225 1717.52 355.225C1720.51 355.225 1723.13 356.345 1725.37 358.265L1729.05 354.318C1726.43 351.757 1722.59 349.997 1717.36 349.997ZM1743.19 343.702H1736.36V351.064H1732.52V356.078H1736.36V371.602C1736.36 376.457 1738.55 379.658 1744.9 379.658C1747.19 379.658 1749.17 379.284 1750.77 378.751V373.416C1749.54 373.736 1748.1 374.056 1746.55 374.056C1743.99 374.056 1743.19 372.936 1743.19 370.589V356.078H1750.18V351.064H1743.19V343.702ZM1779.99 350.797H1773.16V366.801C1773.16 371.122 1770.6 373.789 1767.02 373.789C1763.82 373.789 1762.43 372.242 1762.43 368.348V350.797H1755.61V369.895C1755.61 376.51 1759.5 379.658 1765.05 379.658C1768.25 379.658 1771.18 378.324 1773.26 375.657V378.911H1779.99V350.797ZM1813.31 341.568H1806.48V353.464C1804.72 351.277 1802.16 349.997 1798.64 349.997C1791.33 349.997 1786.16 356.078 1786.16 364.881C1786.16 373.576 1790.96 379.658 1798.48 379.658C1801.36 379.658 1804.51 378.591 1806.64 375.763V378.911H1813.31V341.568ZM1800.19 355.545C1803.98 355.545 1806.86 358.586 1806.86 364.827C1806.86 371.122 1804.19 374.056 1800.19 374.056C1795.71 374.056 1793.31 370.855 1793.31 364.827C1793.31 358.852 1795.81 355.545 1800.19 355.545ZM1833.16 349.997C1824.35 349.997 1819.55 356.185 1819.55 364.774C1819.55 373.256 1824.73 379.658 1833.58 379.658C1839.45 379.658 1843.61 377.257 1846.17 373.096L1840.62 370.269C1839.4 372.562 1837.21 374.216 1833.9 374.216C1829.42 374.216 1826.75 371.549 1826.54 366.374H1846.39V364.987C1846.39 356.292 1841.58 349.997 1833.16 349.997ZM1833.1 355.225C1836.78 355.225 1839.08 357.359 1839.4 361.733H1826.59C1826.97 357.465 1829.37 355.225 1833.1 355.225ZM1867.56 349.997C1864.25 349.997 1861.26 351.33 1859.13 354.425V350.797H1852.41V378.911H1859.24V363.173C1859.24 358.799 1861.9 355.812 1865.48 355.812C1869.32 355.812 1870.28 358.426 1870.28 362.907V378.911H1877.11V360.719C1877.11 353.998 1873.69 349.997 1867.56 349.997ZM1892.4 343.702H1885.57V351.064H1881.73V356.078H1885.57V371.602C1885.57 376.457 1887.75 379.658 1894.1 379.658C1896.4 379.658 1898.37 379.284 1899.97 378.751V373.416C1898.74 373.736 1897.3 374.056 1895.76 374.056C1893.2 374.056 1892.4 372.936 1892.4 370.589V356.078H1899.38V351.064H1892.4V343.702ZM1915.28 349.997C1908.5 349.997 1903.54 353.144 1903.54 358.639C1903.54 363.28 1906.64 365.947 1913.31 367.068C1919.6 368.135 1920.51 369.095 1920.51 371.015C1920.51 373.043 1918.64 374.323 1914.59 374.323C1911.28 374.323 1908.18 373.096 1905.68 370.642L1901.89 374.803C1904.82 377.79 1909.14 379.658 1915.07 379.658C1923.12 379.658 1927.55 375.977 1927.55 370.749C1927.55 365.361 1924.14 363.013 1917.36 361.84C1911.81 360.879 1910.48 360.239 1910.48 358.265C1910.48 356.452 1912.13 355.225 1915.44 355.225C1918.43 355.225 1921.04 356.345 1923.28 358.265L1926.96 354.318C1924.35 351.757 1920.51 349.997 1915.28 349.997ZM1947.93 338.207C1945.74 338.207 1943.77 339.968 1943.77 342.208C1943.77 344.449 1945.74 346.262 1947.93 346.262C1950.17 346.262 1952.14 344.449 1952.14 342.208C1952.14 339.968 1950.17 338.207 1947.93 338.207ZM1951.34 350.797H1944.51V378.911H1951.34V350.797ZM1974.25 349.997C1970.95 349.997 1967.96 351.33 1965.82 354.425V350.797H1959.1V378.911H1965.93V363.173C1965.93 358.799 1968.6 355.812 1972.17 355.812C1976.01 355.812 1976.97 358.426 1976.97 362.907V378.911H1983.8V360.719C1983.8 353.998 1980.39 349.997 1974.25 349.997ZM2013.86 349.997C2006.66 349.997 2002.07 352.877 2001.91 359.066H2008.63C2008.69 356.132 2010.18 355.011 2013.7 355.011C2017.54 355.011 2018.56 356.078 2018.56 359.332V360.719L2012.26 361.52C2003.99 362.533 2000.79 365.841 2000.79 371.015C2000.79 376.03 2004.26 379.658 2010.29 379.658C2013.27 379.658 2016.53 378.751 2018.66 375.977C2018.82 376.99 2019.09 378.004 2019.46 378.911H2026.34C2025.54 376.937 2025.38 374.963 2025.38 372.776V358.852C2025.38 353.304 2022.24 349.997 2013.86 349.997ZM2018.56 365.307V368.348C2018.56 371.869 2015.52 374.216 2012.05 374.216C2009.06 374.216 2007.78 372.669 2007.78 370.429C2007.78 367.761 2009.59 366.534 2014.02 365.947L2018.56 365.307ZM2056.66 349.997C2048.02 349.997 2042.68 356.185 2042.68 364.881C2042.68 373.416 2047.86 379.658 2056.71 379.658C2063.17 379.658 2067.38 376.243 2069.57 371.442L2063.65 368.988C2062.58 371.762 2060.87 374.11 2057.03 374.11C2052.55 374.11 2049.83 370.802 2049.83 364.774C2049.83 358.746 2052.71 355.598 2056.98 355.598C2059.97 355.598 2062.1 357.145 2063.22 359.919L2069.14 357.519C2067.06 352.984 2062.74 349.997 2056.66 349.997ZM2081.47 341.568H2074.65V371.869C2074.65 376.99 2077.15 379.391 2081.53 379.391C2082.91 379.391 2084.09 379.231 2085.05 378.964V373.843C2084.46 373.896 2084.25 373.896 2083.88 373.896C2081.58 373.896 2081.47 373.309 2081.47 370.802V341.568ZM2101.85 349.997C2094.65 349.997 2090.06 352.877 2089.9 359.066H2096.62C2096.68 356.132 2098.17 355.011 2101.69 355.011C2105.53 355.011 2106.55 356.078 2106.55 359.332V360.719L2100.25 361.52C2091.98 362.533 2088.78 365.841 2088.78 371.015C2088.78 376.03 2092.25 379.658 2098.28 379.658C2101.27 379.658 2104.52 378.751 2106.65 375.977C2106.81 376.99 2107.08 378.004 2107.45 378.911H2114.34C2113.54 376.937 2113.38 374.963 2113.38 372.776V358.852C2113.38 353.304 2110.23 349.997 2101.85 349.997ZM2106.55 365.307V368.348C2106.55 371.869 2103.51 374.216 2100.04 374.216C2097.05 374.216 2095.77 372.669 2095.77 370.429C2095.77 367.761 2097.58 366.534 2102.01 365.947L2106.55 365.307ZM2131.58 349.997C2124.81 349.997 2119.85 353.144 2119.85 358.639C2119.85 363.28 2122.94 365.947 2129.61 367.068C2135.91 368.135 2136.81 369.095 2136.81 371.015C2136.81 373.043 2134.95 374.323 2130.89 374.323C2127.58 374.323 2124.49 373.096 2121.98 370.642L2118.19 374.803C2121.13 377.79 2125.45 379.658 2131.37 379.658C2139.43 379.658 2143.85 375.977 2143.85 370.749C2143.85 365.361 2140.44 363.013 2133.67 361.84C2128.12 360.879 2126.78 360.239 2126.78 358.265C2126.78 356.452 2128.44 355.225 2131.74 355.225C2134.73 355.225 2137.35 356.345 2139.59 358.265L2143.27 354.318C2140.65 351.757 2136.81 349.997 2131.58 349.997ZM2159.98 349.997C2153.2 349.997 2148.24 353.144 2148.24 358.639C2148.24 363.28 2151.34 365.947 2158 367.068C2164.3 368.135 2165.21 369.095 2165.21 371.015C2165.21 373.043 2163.34 374.323 2159.28 374.323C2155.98 374.323 2152.88 373.096 2150.37 370.642L2146.59 374.803C2149.52 377.79 2153.84 379.658 2159.76 379.658C2167.82 379.658 2172.25 375.977 2172.25 370.749C2172.25 365.361 2168.83 363.013 2162.06 361.84C2156.51 360.879 2155.18 360.239 2155.18 358.265C2155.18 356.452 2156.83 355.225 2160.14 355.225C2163.12 355.225 2165.74 356.345 2167.98 358.265L2171.66 354.318C2169.05 351.757 2165.21 349.997 2159.98 349.997ZM1457.75 421.568H1451.25V448.295L1435.78 421.568H1427.93V458.911H1434.44V432.877L1449.81 458.911H1457.75V421.568ZM1489.91 430.797H1483.08V446.801C1483.08 451.122 1480.52 453.789 1476.95 453.789C1473.75 453.789 1472.36 452.242 1472.36 448.348V430.797H1465.53V449.895C1465.53 456.51 1469.43 459.658 1474.97 459.658C1478.18 459.658 1481.11 458.324 1483.19 455.657V458.911H1489.91V430.797ZM1528.79 429.997C1525.37 429.997 1522.01 431.33 1519.88 434.638C1518.54 431.704 1515.93 429.997 1512.04 429.997C1508.89 429.997 1506.33 431.224 1504.3 433.998V430.797H1497.58V458.911H1504.41V443.067C1504.41 438.746 1506.81 435.812 1510.06 435.812C1513.74 435.812 1514.33 438.372 1514.33 443.654V458.911H1521.16V443.067C1521.16 438.746 1523.5 435.812 1526.76 435.812C1530.39 435.812 1531.08 438.372 1531.08 443.654V458.911H1537.91V440.826C1537.91 433.998 1534.87 429.997 1528.79 429.997ZM1552.13 421.568H1545.3V458.911H1552.02V455.923C1553.73 458.324 1556.39 459.658 1560.24 459.658C1567.54 459.658 1572.51 453.256 1572.51 444.881C1572.51 435.972 1567.54 429.997 1560.18 429.997C1557.19 429.997 1554.26 431.17 1552.13 433.731V421.568ZM1558.74 435.598C1562.9 435.598 1565.36 438.959 1565.36 444.934C1565.36 450.749 1562.64 454.11 1558.53 454.11C1554.74 454.11 1551.75 451.175 1551.75 444.934C1551.75 438.586 1554.58 435.598 1558.74 435.598ZM1590.8 429.997C1582 429.997 1577.2 436.185 1577.2 444.774C1577.2 453.256 1582.37 459.658 1591.23 459.658C1597.1 459.658 1601.26 457.257 1603.82 453.096L1598.27 450.269C1597.04 452.562 1594.86 454.216 1591.55 454.216C1587.07 454.216 1584.4 451.549 1584.19 446.374H1604.03V444.987C1604.03 436.292 1599.23 429.997 1590.8 429.997ZM1590.75 435.225C1594.43 435.225 1596.72 437.359 1597.04 441.733H1584.24C1584.61 437.465 1587.01 435.225 1590.75 435.225ZM1624.51 429.997C1621.47 429.997 1618.7 431.704 1616.78 435.385V430.797H1610.05V458.911H1616.88V446.694C1616.88 438.959 1620.3 436.878 1624.73 436.878C1625.1 436.878 1625.53 436.878 1626.43 436.932V430.157C1625.85 430.05 1625.15 429.997 1624.51 429.997ZM1655.47 429.997C1646.61 429.997 1641.23 436.185 1641.23 444.827C1641.23 453.416 1646.51 459.658 1655.47 459.658C1664.43 459.658 1669.77 453.629 1669.77 444.827C1669.77 436.452 1664.27 429.997 1655.47 429.997ZM1655.47 435.598C1659.79 435.598 1662.62 438.692 1662.62 444.72C1662.62 450.802 1660 454.11 1655.47 454.11C1650.99 454.11 1648.37 450.802 1648.37 444.72C1648.37 438.692 1651.15 435.598 1655.47 435.598ZM1686.2 420.608C1679.64 420.608 1677.02 423.969 1677.02 428.396V431.064H1673.18V436.078H1677.02V458.911H1683.85V436.078H1691V431.064H1683.85V428.823C1683.85 426.422 1685.03 425.836 1687.37 425.836C1688.92 425.836 1690.95 426.262 1692.23 426.636V421.568C1690.57 421.034 1688.39 420.608 1686.2 420.608ZM1717.36 429.997C1710.59 429.997 1705.63 433.144 1705.63 438.639C1705.63 443.28 1708.72 445.947 1715.39 447.068C1721.69 448.135 1722.59 449.095 1722.59 451.015C1722.59 453.043 1720.73 454.323 1716.67 454.323C1713.36 454.323 1710.27 453.096 1707.76 450.642L1703.97 454.803C1706.91 457.79 1711.23 459.658 1717.15 459.658C1725.21 459.658 1729.63 455.977 1729.63 450.749C1729.63 445.361 1726.22 443.013 1719.45 441.84C1713.9 440.879 1712.56 440.239 1712.56 438.265C1712.56 436.452 1714.22 435.225 1717.52 435.225C1720.51 435.225 1723.13 436.345 1725.37 438.265L1729.05 434.318C1726.43 431.757 1722.59 429.997 1717.36 429.997ZM1746.28 429.997C1738.76 429.997 1733.8 436.078 1733.8 444.881C1733.8 453.576 1738.66 459.658 1746.23 459.658C1749.01 459.658 1752.05 458.697 1754.13 455.977V467.713H1760.95V430.797H1754.29V433.678C1752.58 431.33 1749.91 429.997 1746.28 429.997ZM1747.78 435.598C1751.57 435.598 1754.55 438.532 1754.55 444.667C1754.55 451.069 1751.83 454.11 1747.78 454.11C1743.35 454.11 1740.95 450.855 1740.95 444.881C1740.95 438.906 1743.46 435.598 1747.78 435.598ZM1792.8 430.797H1785.97V446.801C1785.97 451.122 1783.41 453.789 1779.84 453.789C1776.64 453.789 1775.25 452.242 1775.25 448.348V430.797H1768.42V449.895C1768.42 456.51 1772.32 459.658 1777.86 459.658C1781.07 459.658 1784 458.324 1786.08 455.657V458.911H1792.8V430.797ZM1811.83 429.997C1804.63 429.997 1800.04 432.877 1799.88 439.066H1806.6C1806.66 436.132 1808.15 435.011 1811.67 435.011C1815.51 435.011 1816.53 436.078 1816.53 439.332V440.719L1810.23 441.52C1801.96 442.533 1798.76 445.841 1798.76 451.015C1798.76 456.03 1802.23 459.658 1808.26 459.658C1811.24 459.658 1814.5 458.751 1816.63 455.977C1816.79 456.99 1817.06 458.004 1817.43 458.911H1824.31C1823.51 456.937 1823.35 454.963 1823.35 452.776V438.852C1823.35 433.304 1820.21 429.997 1811.83 429.997ZM1816.53 445.307V448.348C1816.53 451.869 1813.48 454.216 1810.02 454.216C1807.03 454.216 1805.75 452.669 1805.75 450.429C1805.75 447.761 1807.56 446.534 1811.99 445.947L1816.53 445.307ZM1845.3 429.997C1842.26 429.997 1839.48 431.704 1837.56 435.385V430.797H1830.84V458.911H1837.67V446.694C1837.67 438.959 1841.08 436.878 1845.51 436.878C1845.88 436.878 1846.31 436.878 1847.22 436.932V430.157C1846.63 430.05 1845.94 429.997 1845.3 429.997ZM1863.79 429.997C1854.99 429.997 1850.19 436.185 1850.19 444.774C1850.19 453.256 1855.36 459.658 1864.22 459.658C1870.08 459.658 1874.24 457.257 1876.81 453.096L1871.26 450.269C1870.03 452.562 1867.84 454.216 1864.54 454.216C1860.05 454.216 1857.39 451.549 1857.17 446.374H1877.02V444.987C1877.02 436.292 1872.22 429.997 1863.79 429.997ZM1863.74 435.225C1867.42 435.225 1869.71 437.359 1870.03 441.733H1857.23C1857.6 437.465 1860 435.225 1863.74 435.225ZM1904.59 420.608C1898.03 420.608 1895.41 423.969 1895.41 428.396V431.064H1891.57V436.078H1895.41V458.911H1902.24V436.078H1909.39V431.064H1902.24V428.823C1902.24 426.422 1903.41 425.836 1905.76 425.836C1907.31 425.836 1909.34 426.262 1910.62 426.636V421.568C1908.96 421.034 1906.78 420.608 1904.59 420.608ZM1925.31 429.997C1916.51 429.997 1911.71 436.185 1911.71 444.774C1911.71 453.256 1916.89 459.658 1925.74 459.658C1931.61 459.658 1935.77 457.257 1938.33 453.096L1932.78 450.269C1931.56 452.562 1929.37 454.216 1926.06 454.216C1921.58 454.216 1918.91 451.549 1918.7 446.374H1938.54V444.987C1938.54 436.292 1933.74 429.997 1925.31 429.997ZM1925.26 435.225C1928.94 435.225 1931.24 437.359 1931.56 441.733H1918.75C1919.13 437.465 1921.53 435.225 1925.26 435.225ZM1956.68 429.997C1947.87 429.997 1943.07 436.185 1943.07 444.774C1943.07 453.256 1948.25 459.658 1957.1 459.658C1962.97 459.658 1967.13 457.257 1969.69 453.096L1964.15 450.269C1962.92 452.562 1960.73 454.216 1957.42 454.216C1952.94 454.216 1950.28 451.549 1950.06 446.374H1969.91V444.987C1969.91 436.292 1965.11 429.997 1956.68 429.997ZM1956.62 435.225C1960.3 435.225 1962.6 437.359 1962.92 441.733H1950.12C1950.49 437.465 1952.89 435.225 1956.62 435.225ZM1983.82 423.702H1977V431.064H1973.16V436.078H1977V451.602C1977 456.457 1979.18 459.658 1985.53 459.658C1987.83 459.658 1989.8 459.284 1991.4 458.751V453.416C1990.17 453.736 1988.73 454.056 1987.19 454.056C1984.62 454.056 1983.82 452.936 1983.82 450.589V436.078H1990.81V431.064H1983.82V423.702ZM2011.23 418.207C2009.04 418.207 2007.07 419.968 2007.07 422.208C2007.07 424.449 2009.04 426.262 2011.23 426.262C2013.47 426.262 2015.44 424.449 2015.44 422.208C2015.44 419.968 2013.47 418.207 2011.23 418.207ZM2014.64 430.797H2007.81V458.911H2014.64V430.797ZM2037.55 429.997C2034.24 429.997 2031.26 431.33 2029.12 434.425V430.797H2022.4V458.911H2029.23V443.173C2029.23 438.799 2031.9 435.812 2035.47 435.812C2039.31 435.812 2040.27 438.426 2040.27 442.907V458.911H2047.1V440.719C2047.1 433.998 2043.68 429.997 2037.55 429.997ZM2077.16 429.997C2069.96 429.997 2065.37 432.877 2065.21 439.066H2071.93C2071.98 436.132 2073.48 435.011 2077 435.011C2080.84 435.011 2081.85 436.078 2081.85 439.332V440.719L2075.56 441.52C2067.29 442.533 2064.09 445.841 2064.09 451.015C2064.09 456.03 2067.56 459.658 2073.58 459.658C2076.57 459.658 2079.83 458.751 2081.96 455.977C2082.12 456.99 2082.39 458.004 2082.76 458.911H2089.64C2088.84 456.937 2088.68 454.963 2088.68 452.776V438.852C2088.68 433.304 2085.53 429.997 2077.16 429.997ZM2081.85 445.307V448.348C2081.85 451.869 2078.81 454.216 2075.35 454.216C2072.36 454.216 2071.08 452.669 2071.08 450.429C2071.08 447.761 2072.89 446.534 2077.32 445.947L2081.85 445.307ZM2114.3 421.568H2107.47V458.911H2114.3V443.173C2114.3 438.799 2116.97 435.812 2120.54 435.812C2124.38 435.812 2125.34 438.426 2125.34 442.48V458.911H2132.17V440.719C2132.17 433.998 2128.76 429.997 2122.57 429.997C2119.26 429.997 2116.44 431.384 2114.3 434.158V421.568ZM2152.31 429.997C2143.46 429.997 2138.07 436.185 2138.07 444.827C2138.07 453.416 2143.35 459.658 2152.31 459.658C2161.28 459.658 2166.61 453.629 2166.61 444.827C2166.61 436.452 2161.12 429.997 2152.31 429.997ZM2152.31 435.598C2156.64 435.598 2159.46 438.692 2159.46 444.72C2159.46 450.802 2156.85 454.11 2152.31 454.11C2147.83 454.11 2145.22 450.802 2145.22 444.72C2145.22 438.692 2147.99 435.598 2152.31 435.598ZM2196.92 430.797H2190.09V446.801C2190.09 451.122 2187.53 453.789 2183.95 453.789C2180.75 453.789 2179.36 452.242 2179.36 448.348V430.797H2172.54V449.895C2172.54 456.51 2176.43 459.658 2181.98 459.658C2185.18 459.658 2188.11 458.324 2190.19 455.657V458.911H2196.92V430.797ZM2215.3 429.997C2208.53 429.997 2203.57 433.144 2203.57 438.639C2203.57 443.28 2206.66 445.947 2213.33 447.068C2219.63 448.135 2220.53 449.095 2220.53 451.015C2220.53 453.043 2218.66 454.323 2214.61 454.323C2211.3 454.323 2208.21 453.096 2205.7 450.642L2201.91 454.803C2204.85 457.79 2209.17 459.658 2215.09 459.658C2223.15 459.658 2227.57 455.977 2227.57 450.749C2227.57 445.361 2224.16 443.013 2217.38 441.84C2211.84 440.879 2210.5 440.239 2210.5 438.265C2210.5 436.452 2212.16 435.225 2215.46 435.225C2218.45 435.225 2221.07 436.345 2223.31 438.265L2226.99 434.318C2224.37 431.757 2220.53 429.997 2215.3 429.997ZM2245.34 429.997C2236.54 429.997 2231.74 436.185 2231.74 444.774C2231.74 453.256 2236.92 459.658 2245.77 459.658C2251.64 459.658 2255.8 457.257 2258.36 453.096L2252.81 450.269C2251.59 452.562 2249.4 454.216 2246.09 454.216C2241.61 454.216 2238.94 451.549 2238.73 446.374H2258.57V444.987C2258.57 436.292 2253.77 429.997 2245.34 429.997ZM2245.29 435.225C2248.97 435.225 2251.27 437.359 2251.59 441.733H2238.78C2239.16 437.465 2241.56 435.225 2245.29 435.225ZM1441.7 501.568H1427.93V538.911H1434.98V526.108H1441.86C1451.41 526.108 1456.05 521.146 1456.05 513.731C1456.05 507.116 1451.83 501.568 1441.7 501.568ZM1442.18 520.239H1434.98V507.543H1442.34C1446.34 507.543 1448.74 509.997 1448.74 513.678C1448.74 518.692 1445.7 520.239 1442.18 520.239ZM1473.7 509.997C1464.85 509.997 1459.46 516.185 1459.46 524.827C1459.46 533.416 1464.74 539.658 1473.7 539.658C1482.67 539.658 1488 533.629 1488 524.827C1488 516.452 1482.51 509.997 1473.7 509.997ZM1473.7 515.598C1478.03 515.598 1480.85 518.692 1480.85 524.72C1480.85 530.802 1478.24 534.11 1473.7 534.11C1469.22 534.11 1466.61 530.802 1466.61 524.72C1466.61 518.692 1469.38 515.598 1473.7 515.598ZM1508.97 509.997C1505.98 509.997 1502.99 511.064 1500.86 513.784V510.797H1494.19V547.713H1501.02V536.083C1502.73 538.377 1505.5 539.658 1508.86 539.658C1516.54 539.658 1521.35 533.256 1521.35 524.72C1521.35 516.078 1516.38 509.997 1508.97 509.997ZM1507.42 515.598C1511.8 515.598 1514.25 519.012 1514.25 524.72C1514.25 530.802 1511.42 534.11 1507.37 534.11C1503.58 534.11 1500.65 531.229 1500.65 524.774C1500.65 518.639 1503.53 515.598 1507.42 515.598ZM1551.59 510.797H1544.77V526.801C1544.77 531.122 1542.21 533.789 1538.63 533.789C1535.43 533.789 1534.04 532.242 1534.04 528.348V510.797H1527.21V529.895C1527.21 536.51 1531.11 539.658 1536.66 539.658C1539.86 539.658 1542.79 538.324 1544.87 535.657V538.911H1551.59V510.797ZM1565.82 501.568H1558.99V531.869C1558.99 536.99 1561.5 539.391 1565.88 539.391C1567.26 539.391 1568.44 539.231 1569.4 538.964V533.843C1568.81 533.896 1568.6 533.896 1568.22 533.896C1565.93 533.896 1565.82 533.309 1565.82 530.802V501.568ZM1586.2 509.997C1579 509.997 1574.41 512.877 1574.25 519.066H1580.97C1581.03 516.132 1582.52 515.011 1586.04 515.011C1589.88 515.011 1590.89 516.078 1590.89 519.332V520.719L1584.6 521.52C1576.33 522.533 1573.13 525.841 1573.13 531.015C1573.13 536.03 1576.6 539.658 1582.63 539.658C1585.61 539.658 1588.87 538.751 1591 535.977C1591.16 536.99 1591.43 538.004 1591.8 538.911H1598.68C1597.88 536.937 1597.72 534.963 1597.72 532.776V518.852C1597.72 513.304 1594.58 509.997 1586.2 509.997ZM1590.89 525.307V528.348C1590.89 531.869 1587.85 534.216 1584.39 534.216C1581.4 534.216 1580.12 532.669 1580.12 530.429C1580.12 527.761 1581.93 526.534 1586.36 525.947L1590.89 525.307ZM1613.11 503.702H1606.28V511.064H1602.44V516.078H1606.28V531.602C1606.28 536.457 1608.46 539.658 1614.81 539.658C1617.11 539.658 1619.08 539.284 1620.68 538.751V533.416C1619.45 533.736 1618.01 534.056 1616.47 534.056C1613.91 534.056 1613.11 532.936 1613.11 530.589V516.078H1620.09V511.064H1613.11V503.702ZM1629.2 498.207C1627.01 498.207 1625.04 499.968 1625.04 502.208C1625.04 504.449 1627.01 506.262 1629.2 506.262C1631.44 506.262 1633.42 504.449 1633.42 502.208C1633.42 499.968 1631.44 498.207 1629.2 498.207ZM1632.62 510.797H1625.79V538.911H1632.62V510.797ZM1653.12 509.997C1644.27 509.997 1638.88 516.185 1638.88 524.827C1638.88 533.416 1644.16 539.658 1653.12 539.658C1662.09 539.658 1667.42 533.629 1667.42 524.827C1667.42 516.452 1661.93 509.997 1653.12 509.997ZM1653.12 515.598C1657.45 515.598 1660.27 518.692 1660.27 524.72C1660.27 530.802 1657.66 534.11 1653.12 534.11C1648.64 534.11 1646.03 530.802 1646.03 524.72C1646.03 518.692 1648.8 515.598 1653.12 515.598ZM1688.76 509.997C1685.46 509.997 1682.47 511.33 1680.33 514.425V510.797H1673.61V538.911H1680.44V523.173C1680.44 518.799 1683.11 515.812 1686.68 515.812C1690.52 515.812 1691.48 518.426 1691.48 522.907V538.911H1698.31V520.719C1698.31 513.998 1694.9 509.997 1688.76 509.997ZM1727.73 509.997C1720.96 509.997 1716 513.144 1716 518.639C1716 523.28 1719.09 525.947 1725.76 527.068C1732.05 528.135 1732.96 529.095 1732.96 531.015C1732.96 533.043 1731.09 534.323 1727.04 534.323C1723.73 534.323 1720.64 533.096 1718.13 530.642L1714.34 534.803C1717.28 537.79 1721.6 539.658 1727.52 539.658C1735.57 539.658 1740 535.977 1740 530.749C1740 525.361 1736.59 523.013 1729.81 521.84C1724.26 520.879 1722.93 520.239 1722.93 518.265C1722.93 516.452 1724.58 515.225 1727.89 515.225C1730.88 515.225 1733.49 516.345 1735.73 518.265L1739.41 514.318C1736.8 511.757 1732.96 509.997 1727.73 509.997ZM1749.08 498.207C1746.89 498.207 1744.92 499.968 1744.92 502.208C1744.92 504.449 1746.89 506.262 1749.08 506.262C1751.32 506.262 1753.29 504.449 1753.29 502.208C1753.29 499.968 1751.32 498.207 1749.08 498.207ZM1752.49 510.797H1745.66V538.911H1752.49V510.797ZM1780.52 510.797H1759.34V516.345H1772.25L1757.9 533.736V538.911H1780.84V533.203H1766.33L1780.52 516.078V510.797ZM1798.04 509.997C1789.24 509.997 1784.44 516.185 1784.44 524.774C1784.44 533.256 1789.61 539.658 1798.47 539.658C1804.34 539.658 1808.5 537.257 1811.06 533.096L1805.51 530.269C1804.28 532.562 1802.1 534.216 1798.79 534.216C1794.31 534.216 1791.64 531.549 1791.43 526.374H1811.27V524.987C1811.27 516.292 1806.47 509.997 1798.04 509.997ZM1797.99 515.225C1801.67 515.225 1803.96 517.359 1804.28 521.733H1791.48C1791.85 517.465 1794.25 515.225 1797.99 515.225ZM1841.35 509.997C1832.49 509.997 1827.11 516.185 1827.11 524.827C1827.11 533.416 1832.39 539.658 1841.35 539.658C1850.31 539.658 1855.65 533.629 1855.65 524.827C1855.65 516.452 1850.15 509.997 1841.35 509.997ZM1841.35 515.598C1845.67 515.598 1848.5 518.692 1848.5 524.72C1848.5 530.802 1845.88 534.11 1841.35 534.11C1836.87 534.11 1834.25 530.802 1834.25 524.72C1834.25 518.692 1837.03 515.598 1841.35 515.598ZM1872.08 500.608C1865.52 500.608 1862.9 503.969 1862.9 508.396V511.064H1859.06V516.078H1862.9V538.911H1869.73V516.078H1876.88V511.064H1869.73V508.823C1869.73 506.422 1870.91 505.836 1873.25 505.836C1874.8 505.836 1876.83 506.262 1878.11 506.636V501.568C1876.45 501.034 1874.27 500.608 1872.08 500.608ZM1903.89 509.997C1896.68 509.997 1892.1 512.877 1891.94 519.066H1898.66C1898.71 516.132 1900.2 515.011 1903.73 515.011C1907.57 515.011 1908.58 516.078 1908.58 519.332V520.719L1902.29 521.52C1894.02 522.533 1890.82 525.841 1890.82 531.015C1890.82 536.03 1894.28 539.658 1900.31 539.658C1903.3 539.658 1906.55 538.751 1908.69 535.977C1908.85 536.99 1909.11 538.004 1909.49 538.911H1916.37C1915.57 536.937 1915.41 534.963 1915.41 532.776V518.852C1915.41 513.304 1912.26 509.997 1903.89 509.997ZM1908.58 525.307V528.348C1908.58 531.869 1905.54 534.216 1902.07 534.216C1899.08 534.216 1897.8 532.669 1897.8 530.429C1897.8 527.761 1899.62 526.534 1904.05 525.947L1908.58 525.307ZM1946.68 509.997C1938.04 509.997 1932.71 516.185 1932.71 524.881C1932.71 533.416 1937.88 539.658 1946.74 539.658C1953.19 539.658 1957.41 536.243 1959.59 531.442L1953.67 528.988C1952.6 531.762 1950.9 534.11 1947.06 534.11C1942.58 534.11 1939.85 530.802 1939.85 524.774C1939.85 518.746 1942.74 515.598 1947 515.598C1949.99 515.598 1952.12 517.145 1953.24 519.919L1959.17 517.519C1957.09 512.984 1952.76 509.997 1946.68 509.997ZM1968.35 498.207C1966.16 498.207 1964.19 499.968 1964.19 502.208C1964.19 504.449 1966.16 506.262 1968.35 506.262C1970.59 506.262 1972.57 504.449 1972.57 502.208C1972.57 499.968 1970.59 498.207 1968.35 498.207ZM1971.77 510.797H1964.94V538.911H1971.77V510.797ZM1987.42 503.702H1980.59V511.064H1976.75V516.078H1980.59V531.602C1980.59 536.457 1982.78 539.658 1989.13 539.658C1991.42 539.658 1993.39 539.284 1994.99 538.751V533.416C1993.77 533.736 1992.33 534.056 1990.78 534.056C1988.22 534.056 1987.42 532.936 1987.42 530.589V516.078H1994.41V511.064H1987.42V503.702ZM2023.68 510.797H2016.43L2010.56 533.95L2004.21 510.797H1996.63L2006.02 538.911H2008.53C2007.73 542.432 2006.82 543.552 2002.88 543.552C2002.08 543.552 2001.65 543.552 2000.42 543.445V548.407C2001.44 548.62 2002.72 548.78 2004.1 548.78C2010.88 548.78 2013.12 545.419 2014.67 540.244L2023.68 510.797ZM1450.07 618.911H1457.7L1445.43 581.568H1436.42L1424.2 618.911H1431.45L1433.32 612.669H1448.21L1450.07 618.911ZM1440.79 587.169L1446.5 606.908H1434.98L1440.79 587.169ZM1487.45 588.45C1483.99 588.45 1481.48 589.57 1479.83 591.597C1477.96 590.637 1475.5 589.997 1472.46 589.997C1464.41 589.997 1460.41 594.264 1460.41 599.439C1460.41 602.267 1461.79 604.56 1463.98 606.054C1461.9 607.441 1460.89 609.202 1460.89 610.962C1460.89 612.936 1461.69 614.536 1463.55 615.71C1460.99 616.99 1459.55 618.857 1459.55 621.311C1459.55 625.472 1462.97 628.78 1472.89 628.78C1481.91 628.78 1486.81 625.312 1486.81 619.978C1486.81 615.39 1483.45 611.709 1475.29 611.709H1470.12C1467.45 611.709 1466.54 610.962 1466.54 609.415C1466.54 608.828 1466.86 608.188 1467.34 607.655C1469 608.241 1470.86 608.561 1472.78 608.561C1480.47 608.561 1484.79 604.827 1484.79 599.546C1484.79 597.732 1484.36 596.078 1483.4 594.745C1484.52 594.264 1485.53 594.158 1487.45 594.158V588.45ZM1472.68 594.745C1476.3 594.745 1478.12 596.452 1478.12 599.332C1478.12 602.053 1476.14 603.707 1472.57 603.707C1469 603.707 1467.18 601.946 1467.18 599.332C1467.18 596.505 1469.1 594.745 1472.68 594.745ZM1473.69 617.097C1478.44 617.097 1479.93 618.057 1479.93 620.351C1479.93 622.485 1477.74 623.872 1472.78 623.872C1467.24 623.872 1465.53 622.485 1465.53 620.298C1465.53 619.124 1465.96 618.164 1467.61 617.097H1473.69ZM1503.54 589.997C1494.74 589.997 1489.94 596.185 1489.94 604.774C1489.94 613.256 1495.11 619.658 1503.97 619.658C1509.84 619.658 1514 617.257 1516.56 613.096L1511.01 610.269C1509.78 612.562 1507.59 614.216 1504.29 614.216C1499.81 614.216 1497.14 611.549 1496.93 606.374H1516.77V604.987C1516.77 596.292 1511.97 589.997 1503.54 589.997ZM1503.49 595.225C1507.17 595.225 1509.46 597.359 1509.78 601.733H1496.98C1497.35 597.465 1499.75 595.225 1503.49 595.225ZM1546.85 589.997C1537.99 589.997 1532.6 596.185 1532.6 604.827C1532.6 613.416 1537.89 619.658 1546.85 619.658C1555.81 619.658 1561.14 613.629 1561.14 604.827C1561.14 596.452 1555.65 589.997 1546.85 589.997ZM1546.85 595.598C1551.17 595.598 1554 598.692 1554 604.72C1554 610.802 1551.38 614.11 1546.85 614.11C1542.37 614.11 1539.75 610.802 1539.75 604.72C1539.75 598.692 1542.53 595.598 1546.85 595.598ZM1577.58 580.608C1571.02 580.608 1568.4 583.969 1568.4 588.396V591.064H1564.56V596.078H1568.4V618.911H1575.23V596.078H1582.38V591.064H1575.23V588.823C1575.23 586.422 1576.4 585.836 1578.75 585.836C1580.3 585.836 1582.33 586.262 1583.61 586.636V581.568C1581.95 581.034 1579.77 580.608 1577.58 580.608ZM1601.43 578.207C1599.25 578.207 1597.27 579.968 1597.27 582.208C1597.27 584.449 1599.25 586.262 1601.43 586.262C1603.68 586.262 1605.65 584.449 1605.65 582.208C1605.65 579.968 1603.68 578.207 1601.43 578.207ZM1604.85 590.797H1598.02V618.911H1604.85V590.797ZM1627.76 589.997C1624.45 589.997 1621.46 591.33 1619.33 594.425V590.797H1612.61V618.911H1619.44V603.173C1619.44 598.799 1622.1 595.812 1625.68 595.812C1629.52 595.812 1630.48 598.426 1630.48 602.907V618.911H1637.31V600.719C1637.31 593.998 1633.89 589.997 1627.76 589.997ZM1670.36 581.568H1663.53V593.464C1661.77 591.277 1659.21 589.997 1655.69 589.997C1648.38 589.997 1643.21 596.078 1643.21 604.881C1643.21 613.576 1648.01 619.658 1655.53 619.658C1658.41 619.658 1661.56 618.591 1663.69 615.763V618.911H1670.36V581.568ZM1657.24 595.545C1661.02 595.545 1663.9 598.586 1663.9 604.827C1663.9 611.122 1661.24 614.056 1657.24 614.056C1652.75 614.056 1650.35 610.855 1650.35 604.827C1650.35 598.852 1652.86 595.545 1657.24 595.545ZM1681.51 578.207C1679.32 578.207 1677.35 579.968 1677.35 582.208C1677.35 584.449 1679.32 586.262 1681.51 586.262C1683.75 586.262 1685.72 584.449 1685.72 582.208C1685.72 579.968 1683.75 578.207 1681.51 578.207ZM1684.92 590.797H1678.09V618.911H1684.92V590.797ZM1716.37 590.797H1709.11L1702.87 612.883L1696.84 590.797H1689.32L1698.71 618.911H1706.92L1716.37 590.797ZM1724.07 578.207C1721.88 578.207 1719.91 579.968 1719.91 582.208C1719.91 584.449 1721.88 586.262 1724.07 586.262C1726.31 586.262 1728.28 584.449 1728.28 582.208C1728.28 579.968 1726.31 578.207 1724.07 578.207ZM1727.48 590.797H1720.66V618.911H1727.48V590.797ZM1760.9 581.568H1754.07V593.464C1752.31 591.277 1749.75 589.997 1746.23 589.997C1738.92 589.997 1733.75 596.078 1733.75 604.881C1733.75 613.576 1738.55 619.658 1746.07 619.658C1748.95 619.658 1752.1 618.591 1754.23 615.763V618.911H1760.9V581.568ZM1747.78 595.545C1751.57 595.545 1754.45 598.586 1754.45 604.827C1754.45 611.122 1751.78 614.056 1747.78 614.056C1743.3 614.056 1740.9 610.855 1740.9 604.827C1740.9 598.852 1743.4 595.545 1747.78 595.545ZM1792.75 590.797H1785.92V606.801C1785.92 611.122 1783.36 613.789 1779.79 613.789C1776.59 613.789 1775.2 612.242 1775.2 608.348V590.797H1768.37V609.895C1768.37 616.51 1772.26 619.658 1777.81 619.658C1781.01 619.658 1783.95 618.324 1786.03 615.657V618.911H1792.75V590.797ZM1811.78 589.997C1804.58 589.997 1799.99 592.877 1799.83 599.066H1806.55C1806.6 596.132 1808.1 595.011 1811.62 595.011C1815.46 595.011 1816.47 596.078 1816.47 599.332V600.719L1810.18 601.52C1801.91 602.533 1798.71 605.841 1798.71 611.015C1798.71 616.03 1802.18 619.658 1808.2 619.658C1811.19 619.658 1814.45 618.751 1816.58 615.977C1816.74 616.99 1817.01 618.004 1817.38 618.911H1824.26C1823.46 616.937 1823.3 614.963 1823.3 612.776V598.852C1823.3 593.304 1820.15 589.997 1811.78 589.997ZM1816.47 605.307V608.348C1816.47 611.869 1813.43 614.216 1809.96 614.216C1806.98 614.216 1805.7 612.669 1805.7 610.429C1805.7 607.761 1807.51 606.534 1811.94 605.947L1816.47 605.307ZM1837.35 581.568H1830.52V611.869C1830.52 616.99 1833.03 619.391 1837.4 619.391C1838.79 619.391 1839.96 619.231 1840.92 618.964V613.843C1840.34 613.896 1840.12 613.896 1839.75 613.896C1837.46 613.896 1837.35 613.309 1837.35 610.802V581.568ZM1458.13 661.568H1451.03V676.558H1434.98V661.568H1427.93V698.911H1434.98V682.533H1451.03V698.911H1458.13V661.568ZM1478.27 669.997C1469.47 669.997 1464.67 676.185 1464.67 684.774C1464.67 693.256 1469.84 699.658 1478.7 699.658C1484.57 699.658 1488.73 697.257 1491.29 693.096L1485.74 690.269C1484.52 692.562 1482.33 694.216 1479.02 694.216C1474.54 694.216 1471.87 691.549 1471.66 686.374H1491.5V684.987C1491.5 676.292 1486.7 669.997 1478.27 669.997ZM1478.22 675.225C1481.9 675.225 1484.2 677.359 1484.52 681.733H1471.71C1472.09 677.465 1474.49 675.225 1478.22 675.225ZM1500.94 658.207C1498.75 658.207 1496.78 659.968 1496.78 662.208C1496.78 664.449 1498.75 666.262 1500.94 666.262C1503.18 666.262 1505.15 664.449 1505.15 662.208C1505.15 659.968 1503.18 658.207 1500.94 658.207ZM1504.35 670.797H1497.53V698.911H1504.35V670.797ZM1538.04 668.45C1534.57 668.45 1532.06 669.57 1530.41 671.597C1528.54 670.637 1526.09 669.997 1523.05 669.997C1514.99 669.997 1510.99 674.264 1510.99 679.439C1510.99 682.267 1512.38 684.56 1514.57 686.054C1512.49 687.441 1511.47 689.202 1511.47 690.962C1511.47 692.936 1512.27 694.536 1514.14 695.71C1511.58 696.99 1510.14 698.857 1510.14 701.311C1510.14 705.472 1513.55 708.78 1523.48 708.78C1532.49 708.78 1537.4 705.312 1537.4 699.978C1537.4 695.39 1534.04 691.709 1525.88 691.709H1520.7C1518.03 691.709 1517.13 690.962 1517.13 689.415C1517.13 688.828 1517.45 688.188 1517.93 687.655C1519.58 688.241 1521.45 688.561 1523.37 688.561C1531.05 688.561 1535.37 684.827 1535.37 679.546C1535.37 677.732 1534.95 676.078 1533.99 674.745C1535.11 674.264 1536.12 674.158 1538.04 674.158V668.45ZM1523.26 674.745C1526.89 674.745 1528.7 676.452 1528.7 679.332C1528.7 682.053 1526.73 683.707 1523.16 683.707C1519.58 683.707 1517.77 681.946 1517.77 679.332C1517.77 676.505 1519.69 674.745 1523.26 674.745ZM1524.28 697.097C1529.02 697.097 1530.52 698.057 1530.52 700.351C1530.52 702.485 1528.33 703.872 1523.37 703.872C1517.82 703.872 1516.11 702.485 1516.11 700.298C1516.11 699.124 1516.54 698.164 1518.19 697.097H1524.28ZM1549.89 661.568H1543.06V698.911H1549.89V683.173C1549.89 678.799 1552.55 675.812 1556.13 675.812C1559.97 675.812 1560.93 678.426 1560.93 682.48V698.911H1567.76V680.719C1567.76 673.998 1564.34 669.997 1558.16 669.997C1554.85 669.997 1552.02 671.384 1549.89 674.158V661.568ZM1583.05 663.702H1576.22V671.064H1572.38V676.078H1576.22V691.602C1576.22 696.457 1578.4 699.658 1584.75 699.658C1587.05 699.658 1589.02 699.284 1590.62 698.751V693.416C1589.39 693.736 1587.95 694.056 1586.41 694.056C1583.85 694.056 1583.05 692.936 1583.05 690.589V676.078H1590.03V671.064H1583.05V663.702ZM1619.78 669.997C1610.93 669.997 1605.54 676.185 1605.54 684.827C1605.54 693.416 1610.82 699.658 1619.78 699.658C1628.75 699.658 1634.08 693.629 1634.08 684.827C1634.08 676.452 1628.59 669.997 1619.78 669.997ZM1619.78 675.598C1624.1 675.598 1626.93 678.692 1626.93 684.72C1626.93 690.802 1624.32 694.11 1619.78 694.11C1615.3 694.11 1612.69 690.802 1612.69 684.72C1612.69 678.692 1615.46 675.598 1619.78 675.598ZM1650.51 660.608C1643.95 660.608 1641.34 663.969 1641.34 668.396V671.064H1637.5V676.078H1641.34V698.911H1648.17V676.078H1655.31V671.064H1648.17V668.823C1648.17 666.422 1649.34 665.836 1651.69 665.836C1653.23 665.836 1655.26 666.262 1656.54 666.636V661.568C1654.89 661.034 1652.7 660.608 1650.51 660.608ZM1674.37 658.207C1672.18 658.207 1670.21 659.968 1670.21 662.208C1670.21 664.449 1672.18 666.262 1674.37 666.262C1676.61 666.262 1678.58 664.449 1678.58 662.208C1678.58 659.968 1676.61 658.207 1674.37 658.207ZM1677.78 670.797H1670.96V698.911H1677.78V670.797ZM1700.69 669.997C1697.39 669.997 1694.4 671.33 1692.26 674.425V670.797H1685.54V698.911H1692.37V683.173C1692.37 678.799 1695.04 675.812 1698.61 675.812C1702.45 675.812 1703.41 678.426 1703.41 682.907V698.911H1710.24V680.719C1710.24 673.998 1706.83 669.997 1700.69 669.997ZM1743.29 661.568H1736.47V673.464C1734.71 671.277 1732.14 669.997 1728.62 669.997C1721.32 669.997 1716.14 676.078 1716.14 684.881C1716.14 693.576 1720.94 699.658 1728.46 699.658C1731.34 699.658 1734.49 698.591 1736.63 695.763V698.911H1743.29V661.568ZM1730.17 675.545C1733.96 675.545 1736.84 678.586 1736.84 684.827C1736.84 691.122 1734.17 694.056 1730.17 694.056C1725.69 694.056 1723.29 690.855 1723.29 684.827C1723.29 678.852 1725.8 675.545 1730.17 675.545ZM1754.44 658.207C1752.26 658.207 1750.28 659.968 1750.28 662.208C1750.28 664.449 1752.26 666.262 1754.44 666.262C1756.68 666.262 1758.66 664.449 1758.66 662.208C1758.66 659.968 1756.68 658.207 1754.44 658.207ZM1757.86 670.797H1751.03V698.911H1757.86V670.797ZM1789.3 670.797H1782.05L1775.8 692.883L1769.78 670.797H1762.25L1771.64 698.911H1779.86L1789.3 670.797ZM1797.01 658.207C1794.82 658.207 1792.84 659.968 1792.84 662.208C1792.84 664.449 1794.82 666.262 1797.01 666.262C1799.25 666.262 1801.22 664.449 1801.22 662.208C1801.22 659.968 1799.25 658.207 1797.01 658.207ZM1800.42 670.797H1793.59V698.911H1800.42V670.797ZM1833.84 661.568H1827.01V673.464C1825.25 671.277 1822.69 669.997 1819.17 669.997C1811.86 669.997 1806.68 676.078 1806.68 684.881C1806.68 693.576 1811.49 699.658 1819.01 699.658C1821.89 699.658 1825.04 698.591 1827.17 695.763V698.911H1833.84V661.568ZM1820.71 675.545C1824.5 675.545 1827.38 678.586 1827.38 684.827C1827.38 691.122 1824.72 694.056 1820.71 694.056C1816.23 694.056 1813.83 690.855 1813.83 684.827C1813.83 678.852 1816.34 675.545 1820.71 675.545ZM1865.68 670.797H1858.86V686.801C1858.86 691.122 1856.3 693.789 1852.72 693.789C1849.52 693.789 1848.13 692.242 1848.13 688.348V670.797H1841.31V689.895C1841.31 696.51 1845.2 699.658 1850.75 699.658C1853.95 699.658 1856.88 698.324 1858.96 695.657V698.911H1865.68V670.797ZM1884.71 669.997C1877.51 669.997 1872.92 672.877 1872.76 679.066H1879.49C1879.54 676.132 1881.03 675.011 1884.55 675.011C1888.39 675.011 1889.41 676.078 1889.41 679.332V680.719L1883.11 681.52C1874.84 682.533 1871.64 685.841 1871.64 691.015C1871.64 696.03 1875.11 699.658 1881.14 699.658C1884.13 699.658 1887.38 698.751 1889.52 695.977C1889.68 696.99 1889.94 698.004 1890.32 698.911H1897.2C1896.4 696.937 1896.24 694.963 1896.24 692.776V678.852C1896.24 673.304 1893.09 669.997 1884.71 669.997ZM1889.41 685.307V688.348C1889.41 691.869 1886.37 694.216 1882.9 694.216C1879.91 694.216 1878.63 692.669 1878.63 690.429C1878.63 687.761 1880.45 686.534 1884.87 685.947L1889.41 685.307ZM1910.29 661.568H1903.46V691.869C1903.46 696.99 1905.96 699.391 1910.34 699.391C1911.73 699.391 1912.9 699.231 1913.86 698.964V693.843C1913.27 693.896 1913.06 693.896 1912.69 693.896C1910.39 693.896 1910.29 693.309 1910.29 690.802V661.568Z" fill="#422986"/>
<path d="M1439.03 203.532H1410.46L1409.89 206.593H1422.42L1416.01 243.209H1419.42L1425.88 206.593H1438.46L1439.03 203.532ZM1449.19 213.168C1441.77 213.168 1437.68 216.626 1436.66 222.294H1439.95C1440.63 218.383 1443.13 215.832 1449.02 215.832C1454.24 215.832 1455.82 217.363 1455.82 220.537C1455.82 221.557 1455.71 222.237 1455.54 223.257L1455.31 224.504L1446.92 225.581C1439.16 226.545 1433.21 229.266 1433.21 236.181C1433.21 240.885 1436.49 243.719 1442.45 243.719C1447.49 243.719 1451.01 241.339 1452.88 238.731C1452.76 239.752 1452.76 242.132 1452.99 243.209H1456.39C1456.22 242.529 1456.16 241.792 1456.16 241.055C1456.16 239.525 1456.39 237.598 1456.84 234.99L1458.77 223.768C1458.94 222.577 1459.05 221.5 1459.05 220.537C1459.05 215.719 1456.39 213.168 1449.19 213.168ZM1454.92 227.112L1453.95 232.667C1453.1 237.371 1448.96 240.829 1443.07 240.829C1438.88 240.829 1436.83 238.958 1436.83 235.784C1436.83 230.569 1441.26 228.869 1447.55 228.075L1454.92 227.112ZM1493.84 213.735H1489.3L1471.28 228.869L1475.75 203.532H1472.35L1465.38 243.209H1468.78L1470.6 233.007L1477.62 227.225L1485.79 243.209H1489.47L1480.18 225.241L1493.84 213.735ZM1510.71 213.168C1501.35 213.168 1495.29 221.444 1495.29 230.966C1495.29 238.335 1499.43 243.719 1507.47 243.719C1512.58 243.719 1516.83 241.452 1520 237.371L1517.45 235.727C1515.01 238.731 1511.84 240.829 1507.47 240.829C1502.2 240.829 1498.69 237.428 1498.69 230.966C1498.69 230.343 1498.69 229.662 1498.75 229.039H1521.7L1521.87 228.189C1521.98 227.055 1522.15 226.035 1522.15 224.958C1522.15 218.326 1518.24 213.168 1510.71 213.168ZM1518.7 226.375H1499.14C1500.45 220.537 1504.19 215.946 1510.59 215.946C1515.81 215.946 1518.81 219.46 1518.81 224.448C1518.81 225.128 1518.75 225.695 1518.7 226.375ZM1557.27 213.168C1547.75 213.168 1541.34 221.5 1541.34 231.25C1541.34 238.618 1545.42 243.719 1553.47 243.719C1562.94 243.719 1569.4 235.614 1569.4 225.751C1569.4 218.383 1565.03 213.168 1557.27 213.168ZM1557.27 216.059C1562.82 216.059 1565.83 219.8 1565.83 225.751C1565.83 233.517 1561.41 240.829 1553.47 240.829C1547.75 240.829 1544.86 237.088 1544.86 231.25C1544.86 223.428 1549.33 216.059 1557.27 216.059ZM1593.23 213.168C1589.2 213.168 1585.23 215.209 1582.8 219.233L1583.82 213.735H1580.42L1575.2 243.209H1578.6L1581.44 226.942C1582.74 219.8 1587.5 216.059 1592.49 216.059C1596.74 216.059 1598.55 218.099 1598.55 221.5C1598.55 222.747 1598.27 224.164 1598.04 225.468L1594.93 243.209H1598.33L1601.44 225.355C1601.9 223.087 1602.01 222.181 1602.01 220.99C1602.01 216.172 1598.84 213.168 1593.23 213.168ZM1639.45 213.168C1635.42 213.168 1631.45 215.209 1629.02 219.233L1630.04 213.735H1626.64L1621.42 243.209H1624.82L1627.66 226.942C1628.96 219.8 1633.72 216.059 1638.71 216.059C1642.96 216.059 1644.77 218.099 1644.77 221.5C1644.77 222.747 1644.49 224.164 1644.26 225.468L1641.15 243.209H1644.55L1647.66 225.355C1648.12 223.087 1648.23 222.181 1648.23 220.99C1648.23 216.172 1645.06 213.168 1639.45 213.168ZM1664.33 243.833C1668.35 243.833 1672.26 241.736 1674.7 237.711L1673.74 243.209H1677.14L1682.35 213.735H1678.95L1676.06 230.003C1674.76 237.144 1670 240.885 1665.06 240.885C1660.81 240.885 1659.17 238.788 1659.17 235.387C1659.17 234.084 1659.45 232.61 1659.68 231.363L1662.8 213.735H1659.4L1656.28 231.42C1655.83 233.743 1655.71 234.65 1655.71 235.897C1655.71 240.772 1658.38 243.833 1664.33 243.833ZM1687.4 243.209H1690.8L1693.64 227.055C1694.94 219.8 1699.53 216.059 1704.24 216.059C1708.09 216.059 1709.62 218.156 1709.62 221.954C1709.62 223.144 1709.45 224.504 1709.22 225.978L1706.16 243.209H1709.56L1712.45 226.658C1713.7 219.8 1717.9 216.059 1722.77 216.059C1726.79 216.059 1728.44 218.213 1728.44 221.784C1728.44 222.747 1728.32 223.881 1728.1 224.958L1724.87 243.209H1728.27L1731.5 224.901C1731.73 223.598 1731.84 222.521 1731.84 221.444C1731.84 216.002 1728.89 213.168 1723.28 213.168C1719.14 213.168 1714.83 215.379 1712.4 220.31C1712.34 216.229 1709.79 213.168 1704.92 213.168C1701.17 213.168 1697.26 215.265 1695.05 218.95L1696.02 213.735H1692.62L1687.4 243.209ZM1754.37 213.168C1745.02 213.168 1738.95 221.444 1738.95 230.966C1738.95 238.335 1743.09 243.719 1751.14 243.719C1756.24 243.719 1760.49 241.452 1763.66 237.371L1761.11 235.727C1758.68 238.731 1755.5 240.829 1751.14 240.829C1745.87 240.829 1742.35 237.428 1742.35 230.966C1742.35 230.343 1742.35 229.662 1742.41 229.039H1765.36L1765.53 228.189C1765.65 227.055 1765.82 226.035 1765.82 224.958C1765.82 218.326 1761.91 213.168 1754.37 213.168ZM1762.36 226.375H1742.8C1744.11 220.537 1747.85 215.946 1754.25 215.946C1759.47 215.946 1762.47 219.46 1762.47 224.448C1762.47 225.128 1762.42 225.695 1762.36 226.375ZM1789.06 213.168C1785.26 213.168 1781.35 214.869 1778.63 220.253L1779.82 213.735H1776.42L1771.21 243.209H1774.61L1777.04 229.209C1778.74 219.743 1783.79 216.626 1788.55 216.626C1789.17 216.626 1789.74 216.626 1790.65 216.682L1791.33 213.282C1790.65 213.225 1789.85 213.168 1789.06 213.168ZM1801.12 202.342C1799.88 202.342 1798.8 203.419 1798.8 204.666C1798.8 205.913 1799.88 206.933 1801.12 206.933C1802.37 206.933 1803.39 205.913 1803.39 204.666C1803.39 203.419 1802.37 202.342 1801.12 202.342ZM1801.52 213.735H1798.12L1792.9 243.209H1796.3L1801.52 213.735ZM1823.3 213.168C1813.32 213.168 1807.26 221.67 1807.26 231.079C1807.26 238.618 1811.11 243.719 1818.99 243.719C1825.51 243.719 1829.93 240.148 1832.42 235.444L1829.47 234.14C1827.43 237.768 1824.49 240.829 1819.05 240.829C1813.6 240.829 1810.83 237.031 1810.83 231.023C1810.83 223.484 1815.3 216.059 1823.18 216.059C1827.21 216.059 1830.1 218.099 1831.23 221.5L1834.29 220.31C1832.82 216.059 1828.96 213.168 1823.3 213.168ZM1878.95 213.735H1875.15L1861.43 239.695L1856.96 213.735H1853.44L1858.94 243.209H1862.96L1878.95 213.735ZM1895.28 213.168C1887.85 213.168 1883.77 216.626 1882.75 222.294H1886.04C1886.72 218.383 1889.21 215.832 1895.11 215.832C1900.32 215.832 1901.91 217.363 1901.91 220.537C1901.91 221.557 1901.8 222.237 1901.63 223.257L1901.4 224.504L1893.01 225.581C1885.25 226.545 1879.29 229.266 1879.29 236.181C1879.29 240.885 1882.58 243.719 1888.53 243.719C1893.58 243.719 1897.09 241.339 1898.96 238.731C1898.85 239.752 1898.85 242.132 1899.08 243.209H1902.48C1902.31 242.529 1902.25 241.792 1902.25 241.055C1902.25 239.525 1902.48 237.598 1902.93 234.99L1904.86 223.768C1905.03 222.577 1905.14 221.5 1905.14 220.537C1905.14 215.719 1902.48 213.168 1895.28 213.168ZM1901 227.112L1900.04 232.667C1899.19 237.371 1895.05 240.829 1889.16 240.829C1884.96 240.829 1882.92 238.958 1882.92 235.784C1882.92 230.569 1887.34 228.869 1893.63 228.075L1901 227.112ZM1921.56 203.532H1918.16L1912.43 235.954C1912.26 236.918 1912.15 237.768 1912.15 238.561C1912.15 241.962 1913.74 243.606 1916.91 243.606C1917.99 243.606 1919.01 243.493 1919.91 243.266L1920.42 240.489C1919.57 240.602 1919.18 240.659 1918.33 240.659C1916.34 240.659 1915.61 239.922 1915.61 238.221C1915.61 237.654 1915.66 236.974 1915.83 236.124L1921.56 203.532ZM1937.27 243.833C1941.3 243.833 1945.21 241.736 1947.64 237.711L1946.68 243.209H1950.08L1955.3 213.735H1951.9L1949 230.003C1947.7 237.144 1942.94 240.885 1938.01 240.885C1933.76 240.885 1932.11 238.788 1932.11 235.387C1932.11 234.084 1932.4 232.61 1932.62 231.363L1935.74 213.735H1932.34L1929.22 231.42C1928.77 233.743 1928.66 234.65 1928.66 235.897C1928.66 240.772 1931.32 243.833 1937.27 243.833ZM1976.44 213.168C1967.09 213.168 1961.03 221.444 1961.03 230.966C1961.03 238.335 1965.16 243.719 1973.21 243.719C1978.31 243.719 1982.56 241.452 1985.74 237.371L1983.19 235.727C1980.75 238.731 1977.58 240.829 1973.21 240.829C1967.94 240.829 1964.43 237.428 1964.43 230.966C1964.43 230.343 1964.43 229.662 1964.48 229.039H1987.44L1987.61 228.189C1987.72 227.055 1987.89 226.035 1987.89 224.958C1987.89 218.326 1983.98 213.168 1976.44 213.168ZM1984.43 226.375H1964.88C1966.18 220.537 1969.92 215.946 1976.33 215.946C1981.54 215.946 1984.55 219.46 1984.55 224.448C1984.55 225.128 1984.49 225.695 1984.43 226.375ZM2007.17 213.168C2000.88 213.168 1995.6 216.512 1995.6 221.557C1995.6 225.921 1998.49 227.962 2004.73 229.096C2011.19 230.286 2013.29 231.363 2013.29 234.707C2013.29 237.825 2010.06 240.829 2003.88 240.829C1999.74 240.829 1996.23 239.582 1993.39 236.804L1990.96 238.845C1993.96 241.962 1998.15 243.719 2003.88 243.719C2011.98 243.719 2016.8 239.525 2016.8 234.424C2016.8 229.209 2013.35 227.565 2006.77 226.432C2000.99 225.411 1999.06 224.278 1999.06 221.387C1999.06 218.553 2002.12 215.946 2007.17 215.946C2010.85 215.946 2013.8 217.023 2016.35 219.12L2018.62 217.079C2015.73 214.585 2012.27 213.168 2007.17 213.168Z" fill="#422986"/>
<path d="M158.7 200.198H130.133L129.566 203.259H142.092L135.687 239.875H139.088L145.55 203.259H158.133L158.7 200.198ZM168.865 209.834C161.439 209.834 157.358 213.292 156.338 218.96H159.626C160.306 215.049 162.8 212.498 168.695 212.498C173.909 212.498 175.496 214.028 175.496 217.203C175.496 218.223 175.383 218.903 175.213 219.923L174.986 221.17L166.597 222.247C158.832 223.211 152.88 225.931 152.88 232.847C152.88 237.551 156.168 240.385 162.12 240.385C167.164 240.385 170.678 238.005 172.549 235.397C172.435 236.417 172.435 238.798 172.662 239.875H176.063C175.893 239.195 175.836 238.458 175.836 237.721C175.836 236.191 176.063 234.264 176.517 231.656L178.444 220.433C178.614 219.243 178.727 218.166 178.727 217.203C178.727 212.385 176.063 209.834 168.865 209.834ZM174.589 223.778L173.626 229.332C172.776 234.037 168.638 237.494 162.743 237.494C158.549 237.494 156.508 235.624 156.508 232.45C156.508 227.235 160.929 225.535 167.221 224.741L174.589 223.778ZM213.509 210.401H208.974L190.95 225.535L195.428 200.198H192.027L185.055 239.875H188.456L190.27 229.672L197.298 223.891L205.46 239.875H209.144L199.849 221.907L213.509 210.401ZM230.379 209.834C221.026 209.834 214.961 218.109 214.961 227.632C214.961 235 219.099 240.385 227.148 240.385C232.249 240.385 236.5 238.118 239.674 234.037L237.124 232.393C234.686 235.397 231.512 237.494 227.148 237.494C221.876 237.494 218.362 234.094 218.362 227.632C218.362 227.008 218.362 226.328 218.419 225.705H241.375L241.545 224.855C241.658 223.721 241.828 222.701 241.828 221.624C241.828 214.992 237.917 209.834 230.379 209.834ZM238.371 223.041H218.816C220.119 217.203 223.86 212.611 230.265 212.611C235.48 212.611 238.484 216.126 238.484 221.114C238.484 221.794 238.427 222.361 238.371 223.041ZM276.942 209.834C267.42 209.834 261.015 218.166 261.015 227.915C261.015 235.284 265.096 240.385 273.145 240.385C282.61 240.385 289.072 232.28 289.072 222.417C289.072 215.049 284.707 209.834 276.942 209.834ZM276.942 212.725C282.497 212.725 285.501 216.466 285.501 222.417C285.501 230.183 281.08 237.494 273.145 237.494C267.42 237.494 264.529 233.753 264.529 227.915C264.529 220.093 269.007 212.725 276.942 212.725ZM312.899 209.834C308.875 209.834 304.907 211.875 302.47 215.899L303.49 210.401H300.089L294.875 239.875H298.276L301.11 223.608C302.413 216.466 307.174 212.725 312.162 212.725C316.413 212.725 318.227 214.765 318.227 218.166C318.227 219.413 317.944 220.83 317.717 222.134L314.6 239.875H318.001L321.118 222.02C321.571 219.753 321.685 218.846 321.685 217.656C321.685 212.838 318.511 209.834 312.899 209.834ZM359.119 209.834C355.094 209.834 351.127 211.875 348.689 215.899L349.71 210.401H346.309L341.094 239.875H344.495L347.329 223.608C348.633 216.466 353.394 212.725 358.382 212.725C362.633 212.725 364.447 214.765 364.447 218.166C364.447 219.413 364.163 220.83 363.937 222.134L360.819 239.875H364.22L367.337 222.02C367.791 219.753 367.904 218.846 367.904 217.656C367.904 212.838 364.73 209.834 359.119 209.834ZM389.556 209.834C382.13 209.834 378.049 213.292 377.029 218.96H380.317C380.997 215.049 383.491 212.498 389.386 212.498C394.6 212.498 396.187 214.028 396.187 217.203C396.187 218.223 396.074 218.903 395.904 219.923L395.677 221.17L387.288 222.247C379.523 223.211 373.572 225.931 373.572 232.847C373.572 237.551 376.859 240.385 382.811 240.385C387.855 240.385 391.369 238.005 393.24 235.397C393.127 236.417 393.127 238.798 393.353 239.875H396.754C396.584 239.195 396.527 238.458 396.527 237.721C396.527 236.191 396.754 234.264 397.208 231.656L399.135 220.433C399.305 219.243 399.418 218.166 399.418 217.203C399.418 212.385 396.754 209.834 389.556 209.834ZM395.28 223.778L394.317 229.332C393.467 234.037 389.329 237.494 383.434 237.494C379.24 237.494 377.199 235.624 377.199 232.45C377.199 227.235 381.62 225.535 387.912 224.741L395.28 223.778ZM405.746 239.875H409.147L411.981 223.721C413.285 216.466 417.876 212.725 422.58 212.725C426.435 212.725 427.965 214.822 427.965 218.62C427.965 219.81 427.795 221.17 427.568 222.644L424.507 239.875H427.908L430.799 223.324C432.046 216.466 436.24 212.725 441.115 212.725C445.139 212.725 446.783 214.879 446.783 218.45C446.783 219.413 446.67 220.547 446.443 221.624L443.212 239.875H446.613L449.844 221.567C450.071 220.263 450.184 219.186 450.184 218.109C450.184 212.668 447.237 209.834 441.625 209.834C437.487 209.834 433.18 212.045 430.742 216.976C430.686 212.895 428.135 209.834 423.26 209.834C419.52 209.834 415.609 211.931 413.398 215.615L414.362 210.401H410.961L405.746 239.875ZM472.713 209.834C463.36 209.834 457.295 218.109 457.295 227.632C457.295 235 461.433 240.385 469.482 240.385C474.583 240.385 478.834 238.118 482.008 234.037L479.458 232.393C477.02 235.397 473.846 237.494 469.482 237.494C464.21 237.494 460.696 234.094 460.696 227.632C460.696 227.008 460.696 226.328 460.753 225.705H483.709L483.879 224.855C483.992 223.721 484.162 222.701 484.162 221.624C484.162 214.992 480.251 209.834 472.713 209.834ZM480.705 223.041H461.15C462.453 217.203 466.194 212.611 472.599 212.611C477.814 212.611 480.818 216.126 480.818 221.114C480.818 221.794 480.761 222.361 480.705 223.041ZM503.437 209.834C497.145 209.834 491.874 213.178 491.874 218.223C491.874 222.587 494.765 224.628 501 225.761C507.461 226.952 509.558 228.029 509.558 231.373C509.558 234.49 506.328 237.494 500.149 237.494C496.012 237.494 492.497 236.247 489.663 233.47L487.226 235.511C490.23 238.628 494.425 240.385 500.149 240.385C508.255 240.385 513.073 236.191 513.073 231.089C513.073 225.875 509.615 224.231 503.04 223.097C497.259 222.077 495.331 220.944 495.331 218.053C495.331 215.219 498.392 212.611 503.437 212.611C507.121 212.611 510.069 213.688 512.619 215.786L514.886 213.745C511.996 211.251 508.538 209.834 503.437 209.834ZM549.167 209.834C539.644 209.834 533.239 218.166 533.239 227.915C533.239 235.284 537.32 240.385 545.369 240.385C554.835 240.385 561.296 232.28 561.296 222.417C561.296 215.049 556.932 209.834 549.167 209.834ZM549.167 212.725C554.721 212.725 557.725 216.466 557.725 222.417C557.725 230.183 553.304 237.494 545.369 237.494C539.644 237.494 536.753 233.753 536.753 227.915C536.753 220.093 541.231 212.725 549.167 212.725ZM584.954 209.834C581.156 209.834 577.245 211.534 574.524 216.919L575.715 210.401H572.314L567.099 239.875H570.5L572.937 225.875C574.638 216.409 579.682 213.292 584.443 213.292C585.067 213.292 585.634 213.292 586.541 213.348L587.221 209.947C586.541 209.891 585.747 209.834 584.954 209.834ZM612.005 200.198H608.604L602.879 232.62C602.709 233.583 602.596 234.434 602.596 235.227C602.596 238.628 604.183 240.272 607.357 240.272C608.434 240.272 609.454 240.158 610.361 239.932L610.871 237.154C610.021 237.268 609.624 237.324 608.774 237.324C606.79 237.324 606.054 236.587 606.054 234.887C606.054 234.32 606.11 233.64 606.28 232.79L612.005 200.198ZM633.273 209.834C625.848 209.834 621.767 213.292 620.747 218.96H624.034C624.715 215.049 627.208 212.498 633.103 212.498C638.318 212.498 639.905 214.028 639.905 217.203C639.905 218.223 639.792 218.903 639.622 219.923L639.395 221.17L631.006 222.247C623.241 223.211 617.289 225.931 617.289 232.847C617.289 237.551 620.577 240.385 626.528 240.385C631.573 240.385 635.087 238.005 636.958 235.397C636.844 236.417 636.844 238.798 637.071 239.875H640.472C640.302 239.195 640.245 238.458 640.245 237.721C640.245 236.191 640.472 234.264 640.925 231.656L642.852 220.433C643.023 219.243 643.136 218.166 643.136 217.203C643.136 212.385 640.472 209.834 633.273 209.834ZM638.998 223.778L638.035 229.332C637.184 234.037 633.047 237.494 627.152 237.494C622.957 237.494 620.917 235.624 620.917 232.45C620.917 227.235 625.338 225.535 631.63 224.741L638.998 223.778ZM667.772 209.834C663.181 209.834 659.383 212.385 657.116 215.729L659.836 200.198H656.436L649.464 239.875H652.865L653.828 234.094C655.132 237.834 658.079 240.385 663.124 240.385C672.703 240.385 678.428 231.77 678.428 222.247C678.428 214.425 674.574 209.834 667.772 209.834ZM662.954 237.494C658.306 237.494 654.962 234.547 654.962 228.539C654.962 220.66 659.383 212.725 667.035 212.725C672.25 212.725 674.914 216.069 674.914 222.247C674.914 229.729 670.889 237.494 662.954 237.494ZM694.315 200.198H690.914L685.189 232.62C685.019 233.583 684.905 234.434 684.905 235.227C684.905 238.628 686.493 240.272 689.667 240.272C690.744 240.272 691.764 240.158 692.671 239.932L693.181 237.154C692.331 237.268 691.934 237.324 691.084 237.324C689.1 237.324 688.363 236.587 688.363 234.887C688.363 234.32 688.42 233.64 688.59 232.79L694.315 200.198ZM716.32 209.834C706.967 209.834 700.902 218.109 700.902 227.632C700.902 235 705.04 240.385 713.089 240.385C718.19 240.385 722.441 238.118 725.615 234.037L723.065 232.393C720.627 235.397 717.453 237.494 713.089 237.494C707.817 237.494 704.303 234.094 704.303 227.632C704.303 227.008 704.303 226.328 704.36 225.705H727.316L727.486 224.855C727.599 223.721 727.769 222.701 727.769 221.624C727.769 214.992 723.858 209.834 716.32 209.834ZM724.312 223.041H704.757C706.06 217.203 709.801 212.611 716.206 212.611C721.421 212.611 724.425 216.126 724.425 221.114C724.425 221.794 724.368 222.361 724.312 223.041ZM747.044 209.834C740.752 209.834 735.481 213.178 735.481 218.223C735.481 222.587 738.372 224.628 744.607 225.761C751.068 226.952 753.165 228.029 753.165 231.373C753.165 234.49 749.935 237.494 743.756 237.494C739.619 237.494 736.104 236.247 733.27 233.47L730.833 235.511C733.837 238.628 738.032 240.385 743.756 240.385C751.862 240.385 756.68 236.191 756.68 231.089C756.68 225.875 753.222 224.231 746.647 223.097C740.866 222.077 738.938 220.944 738.938 218.053C738.938 215.219 741.999 212.611 747.044 212.611C750.728 212.611 753.676 213.688 756.226 215.786L758.493 213.745C755.603 211.251 752.145 209.834 747.044 209.834Z" fill="#004794"/>
<circle cx="1217" cy="417.602" r="121.698" fill="white" stroke="#CCCCCC" stroke-width="3.33418"/>
<path d="M1221.26 395.577H1213.27L1192.8 440.249L1188.18 395.577H1180.4L1186.93 446.924H1196.69L1221.26 395.577ZM1238.44 448.244C1250.1 448.244 1259.49 441.496 1259.49 431.373C1259.49 423.304 1254.87 419.197 1244.3 417.069C1234.11 414.722 1231.32 413.548 1231.32 408.634C1231.32 404.159 1236.09 400.858 1243.13 400.858C1250.98 400.858 1254.72 404.82 1257.07 407.68L1263.3 403.573C1259.64 398.585 1253.11 394.257 1243.13 394.257C1232.13 394.257 1223.62 400.785 1223.62 409.147C1223.62 417.363 1228.75 420.737 1238.44 422.937C1248.93 425.285 1251.64 427.339 1251.64 432.033C1251.64 437.975 1245.55 441.642 1238.44 441.642C1231.54 441.642 1226.19 438.855 1222.3 434.307L1216.8 438.415C1221.64 445.383 1230.07 448.244 1238.44 448.244Z" fill="#888888"/>
</svg>
