<?xml version="1.0" encoding="iso-8859-1"?>
<!-- Uploaded to: SVG Repo, www.svgrepo.com, Generator: SVG Repo Mixer Tools -->
<svg fill="#000000" height="800px" width="800px" version="1.1" id="Layer_1" xmlns="http://www.w3.org/2000/svg" xmlns:xlink="http://www.w3.org/1999/xlink" 
	 viewBox="0 0 392.533 392.533" xml:space="preserve">
<g>
	<g>
		<path d="M383.384,338.747l-50.36-50.36c8.986-16.226,14.158-34.844,14.158-54.626c0-16.485-3.62-32.065-9.956-46.222
			c0-0.065,0-0.259,0-0.323V57.729c0-6.012-4.849-10.925-10.925-10.925H116.2L96.806,6.206C95.061,2.392,91.182,0,86.98,0H10.956
			C4.944,0,0.03,4.849,0.03,10.925v275.717c0,6.012,4.848,10.925,10.925,10.925h129.293c20.428,29.802,54.691,49.519,93.608,49.519
			c19.782,0,38.4-5.107,54.626-14.158l50.36,50.36c5.947,5.948,13.834,9.18,22.238,9.244c8.404,0,16.291-3.232,22.238-9.18
			c5.947-5.948,9.18-13.834,9.18-22.238C392.628,352.582,389.396,344.695,383.384,338.747z M128.741,275.717H21.881v-88.436H36.75
			c6.012,0,10.925-4.849,10.925-10.925c0-6.012-4.848-10.925-10.925-10.925H21.881v-19.394h40.598
			c6.012,0,10.925-4.849,10.925-10.925c0-6.012-4.848-10.925-10.925-10.925H21.881v-102.4h58.182l19.329,40.663
			c1.745,3.814,5.624,6.206,9.826,6.206h206.158v86.691c-20.622-21.398-49.519-34.844-81.519-34.844
			c-62.448,0-113.261,50.877-113.261,113.261C120.596,248.63,123.505,262.723,128.741,275.717z M233.921,325.236
			c-50.424,0-91.475-41.051-91.475-91.475c0-50.489,41.051-91.475,91.475-91.475c50.424,0,91.475,40.986,91.475,91.475
			S284.346,325.236,233.921,325.236z M367.998,367.903c-2.457,2.457-8.857,4.784-13.705,0l-47.515-47.515
			c4.913-4.202,9.503-8.727,13.705-13.705l47.515,47.515C372.847,359.111,370.455,365.317,367.998,367.903z"/>
	</g>
</g>
</svg>